<svg xmlns="http://www.w3.org/2000/svg" xmlns:xlink="http://www.w3.org/1999/xlink" xmlns:lucid="lucid" width="1321" height="590.5"><g transform="translate(304.76666666666665 45.383333333333326)" lucid:page-tab-id="0_0"><path d="M-500-500h2000v1500H-500z" fill="#fff"/><path d="M-264.27 61.12a6 6 0 0 1 6-6h148a6 6 0 0 1 6 6v48a6 6 0 0 1-6 6h-148a6 6 0 0 1-6-6z" stroke="#3a414a" fill="#fff"/><use xlink:href="#a" transform="matrix(1,0,0,1,-259.26666666666665,60.116666666666674) translate(36.615668402777786 34.02777777777778)"/><use xlink:href="#b" transform="matrix(1,0,0,1,-259.26666666666665,60.116666666666674) translate(104.345703125 34.02777777777778)"/><path d="M-264.27 141.12a6 6 0 0 1 6-6h148a6 6 0 0 1 6 6v48a6 6 0 0 1-6 6h-148a6 6 0 0 1-6-6z" stroke="#3a414a" fill="#fff"/><use xlink:href="#a" transform="matrix(1,0,0,1,-259.26666666666665,140.11666666666667) translate(34.358723958333336 34.02777777777778)"/><use xlink:href="#c" transform="matrix(1,0,0,1,-259.26666666666665,140.11666666666667) translate(102.08875868055554 34.02777777777778)"/><path d="M-264.27 281.12a6 6 0 0 1 6-6h148a6 6 0 0 1 6 6v48a6 6 0 0 1-6 6h-148a6 6 0 0 1-6-6z" stroke="#3a414a" fill="#fff"/><use xlink:href="#a" transform="matrix(1,0,0,1,-259.26666666666665,280.1166666666667) translate(34.57031250000001 34.02777777777778)"/><use xlink:href="#d" transform="matrix(1,0,0,1,-259.26666666666665,280.1166666666667) translate(102.30034722222223 34.02777777777778)"/><path d="M245.73 21.12a6 6 0 0 1 6-6h758a6 6 0 0 1 6 6v388a6 6 0 0 1-6 6h-758a6 6 0 0 1-6-6z" stroke="#3a414a" fill="#fff"/><use xlink:href="#e" transform="matrix(1,0,0,1,250.73333333333335,20.116666666666674) translate(299.1569010416667 37.52777777777778)"/><use xlink:href="#f" transform="matrix(1,0,0,1,250.73333333333335,20.116666666666674) translate(354.5279947916667 37.52777777777778)"/><path d="M-102.77 85.12h172.5a6 6 0 0 1 6 6v128a6 6 0 0 0 6 6h175" stroke="#3a414a" stroke-width="2" fill="none"/><path d="M-102.74 86.1h-1.03v-1.96h1.03z" stroke="#3a414a" stroke-width=".05" fill="#3a414a"/><path d="M272 225.12l-14.27 4.63v-9.27z" stroke="#3a414a" stroke-width="2" fill="#3a414a"/><use xlink:href="#g" transform="matrix(1,0,0,1,99.78662280669533,199.60625000000007) translate(0 17.22222222222222)"/><path d="M-102.77 165.12h172.5a6 6 0 0 1 6 6v46a6 6 0 0 0 6 6h175" stroke="#3a414a" stroke-width="2" fill="none"/><path d="M-102.74 166.1h-1.03v-1.96h1.03z" stroke="#3a414a" stroke-width=".05" fill="#3a414a"/><path d="M272 223.13l-14.27 4.64v-9.27z" stroke="#3a414a" stroke-width="2" fill="#3a414a"/><path d="M-103.27 305.12h173a6 6 0 0 0 6-6v-68a6 6 0 0 1 6-6h177.12" stroke="#3a414a" fill="none"/><path d="M-103.25 305.6h-.52v-.96h.52z" stroke="#3a414a" stroke-width=".05" fill="#3a414a"/><path d="M273.6 225.12l-14.25 4.63v-9.27z" stroke="#3a414a" fill="#3a414a"/><path d="M78.23-42.38v7.63m0 10.17v15.26m0 10.18v15.26m0 10.17v15.25m0 10.18V67m0 10.16v15.26m0 10.18v15.26m0 10.17v15.26m0 10.16v15.27m0 10.17v15.26m0 10.17v15.27m0 10.17v15.26m0 10.17v15.26m0 10.18v15.26m0 10.17v15.26m0 10.18v15.27m0 10.17v15.26m0 10.18v15.26m0 10.17v15.27m0 10.18v15.26m0 10.18v15.26m0 10.18v15.26m0 10.17v15.26m0 10.2v7.62" stroke="#3a414a" stroke-width="5" stroke-linecap="round" fill="none"/><path d="M-204.27-38.88a6 6 0 0 1 6-6h228a6 6 0 0 1 6 6v48a6 6 0 0 1-6 6h-228a6 6 0 0 1-6-6z" stroke="#000" stroke-opacity="0" fill="#fff" fill-opacity="0"/><use xlink:href="#h" transform="matrix(1,0,0,1,-199.26666666666665,-39.883333333333326) translate(8.500434027777786 34.02777777777778)"/><use xlink:href="#i" transform="matrix(1,0,0,1,-199.26666666666665,-39.883333333333326) translate(83.93446180555556 34.02777777777778)"/><path d="M495.73-38.88a6 6 0 0 1 6-6h228a6 6 0 0 1 6 6v48a6 6 0 0 1-6 6h-228a6 6 0 0 1-6-6z" stroke="#000" stroke-opacity="0" fill="#fff" fill-opacity="0"/><use xlink:href="#e" transform="matrix(1,0,0,1,500.73333333333335,-39.883333333333326) translate(28.93229166666667 34.02777777777778)"/><use xlink:href="#j" transform="matrix(1,0,0,1,500.73333333333335,-39.883333333333326) translate(84.30338541666667 34.02777777777778)"/><path d="M-304.27 209.45a6 6 0 0 1 6-6h228a6 6 0 0 1 6 6v51.33a6 6 0 0 1-6 6h-228a6 6 0 0 1-6-6z" stroke="#000" stroke-opacity="0" fill="#fff" fill-opacity="0"/><use xlink:href="#k" transform="matrix(1,0,0,1,-299.26666666666665,208.45000000000027) translate(95.79427083333334 46.43055555555554)"/><path d="M275.73 101.12a6 6 0 0 1 6-6h188a6 6 0 0 1 6 6v248a6 6 0 0 1-6 6h-188a6 6 0 0 1-6-6z" stroke="#3a414a" fill="#fff"/><use xlink:href="#l" transform="matrix(1,0,0,1,280.73333333333335,100.11666666666679) translate(7.7983940972222285 130.90277777777777)"/><use xlink:href="#m" transform="matrix(1,0,0,1,280.73333333333335,100.11666666666679) translate(89.94900173611111 130.90277777777777)"/><path d="M575.73 100.03a6 6 0 0 1 6-6h348a6 6 0 0 1 6 6v249.1a6 6 0 0 1-6 6h-348a6 6 0 0 1-6-6z" stroke="#3a414a" fill="#fff"/><use xlink:href="#e" transform="matrix(1,0,0,1,580.7333333333333,99.03333333333319) translate(94.06467013888889 37.52777777777778)"/><use xlink:href="#n" transform="matrix(1,0,0,1,580.7333333333333,99.03333333333319) translate(149.43576388888889 37.52777777777778)"/><path d="M707.73 163.45c15.47 0 28 7.1 28 15.83 0 8.75-12.53 15.84-28 15.84h-84c-15.46 0-28-7.1-28-15.84s12.54-15.83 28-15.83z" stroke="#3a414a" fill="#fff"/><use xlink:href="#o" transform="matrix(1,0,0,1,600.7333333333333,168.45000000000016) translate(27.754565972222224 21.52777777777778)"/><use xlink:href="#p" transform="matrix(1,0,0,1,600.7333333333333,168.45000000000016) translate(74.04362847222222 21.52777777777778)"/><path d="M707.73 195.12c15.47 0 28 7.1 28 15.83 0 8.75-12.53 15.83-28 15.83h-84c-15.46 0-28-7.1-28-15.83 0-8.74 12.54-15.83 28-15.83z" stroke="#3a414a" fill="#fff"/><use xlink:href="#o" transform="matrix(1,0,0,1,600.7333333333333,200.11666666666667) translate(30.244800347222224 21.52777777777778)"/><use xlink:href="#q" transform="matrix(1,0,0,1,600.7333333333333,200.11666666666667) translate(76.53386284722222 21.52777777777778)"/><path d="M795.73 177.78a6 6 0 0 1 6-6h102a6 6 0 0 1 6 6v131.34a6 6 0 0 1-6 6h-102a6 6 0 0 1-6-6z" stroke="#3a414a" fill="#fff"/><use xlink:href="#r" transform="matrix(1,0,0,1,800.7333333333333,176.78333333333353) translate(14.087673611111107 63.40277777777778)"/><use xlink:href="#s" transform="matrix(1,0,0,1,800.7333333333333,176.78333333333353) translate(28.94769965277778 90.29079861111111)"/><path d="M476.73 225.12h53a6 6 0 0 0 6-6v-33.84a6 6 0 0 1 6-6h37.12" stroke="#3a414a" fill="none"/><path d="M476.75 225.6h-.52v-.96h.52z" stroke="#3a414a" stroke-width=".05" fill="#3a414a"/><path d="M593.6 179.28l-14.25 4.64v-9.27z" stroke="#3a414a" fill="#3a414a"/><path d="M476.73 225.12h53a6 6 0 0 0 6-6v-2.17a6 6 0 0 1 6-6h37.12" stroke="#3a414a" fill="none"/><path d="M476.75 225.6h-.52v-.96h.52z" stroke="#3a414a" stroke-width=".05" fill="#3a414a"/><path d="M593.6 210.95l-14.25 4.64v-9.28z" stroke="#3a414a" fill="#3a414a"/><path d="M736.74 179.28h23a6 6 0 0 1 6 6v52.17a6 6 0 0 0 6 6h7.1" stroke="#3a414a" fill="none"/><path d="M736.75 179.76h-.56l.03-.47-.03-.5h.55z" stroke="#3a414a" stroke-width=".05" fill="#3a414a"/><path d="M793.6 243.45l-14.25 4.64v-9.28z" stroke="#3a414a" fill="#3a414a"/><path d="M736.74 210.95h23a6 6 0 0 1 6 6v20.5a6 6 0 0 0 6 6h7.1" stroke="#3a414a" fill="none"/><path d="M736.75 211.43h-.56l.03-.47-.03-.5h.55z" stroke="#3a414a" stroke-width=".05" fill="#3a414a"/><path d="M793.6 243.45l-14.25 4.64v-9.28z" stroke="#3a414a" fill="#3a414a"/><path d="M852.73 316.12v193a6 6 0 0 1-6 6h-1025a6 6 0 0 1-6-6V352" stroke="#3a414a" fill="none"/><path d="M853.2 316.13h-.94v-.5h.95z" stroke="#3a414a" stroke-width=".05" fill="#3a414a"/><path d="M-184.27 337.24l4.64 14.26h-9.27z" stroke="#3a414a" fill="#3a414a"/><path d="M736.74 179.28h23a6 6 0 0 1 6 6v323.84a6 6 0 0 1-6 6h-938a6 6 0 0 1-6-6V352" stroke="#3a414a" fill="none"/><path d="M736.75 179.76h-.56l.03-.47-.03-.5h.55z" stroke="#3a414a" stroke-width=".05" fill="#3a414a"/><path d="M-184.27 337.24l4.64 14.26h-9.27z" stroke="#3a414a" fill="#3a414a"/><path d="M736.74 210.95h23a6 6 0 0 1 6 6v292.17a6 6 0 0 1-6 6h-938a6 6 0 0 1-6-6V352" stroke="#3a414a" fill="none"/><path d="M736.75 211.43h-.56l.03-.47-.03-.5h.55z" stroke="#3a414a" stroke-width=".05" fill="#3a414a"/><path d="M-184.27 337.24l4.64 14.26h-9.27z" stroke="#3a414a" fill="#3a414a"/><use xlink:href="#t" transform="matrix(1,0,0,1,-118.46234577851959,489.60625) translate(0 17.22222222222222)"/><path d="M852.73 316.12v1m0 4.02v2m0 4.03v2m0 4.03v2.02m0 4.02v2m0 4.03v2m0 4.03v2m0 4.03v2m0 4.03v2m0 4.03v2m0 4.02v2m0 4.03v2.02m0 4.02v2m0 4.02v2m0 4.03v2m0 4.03v2m0 4.03v2.02m0 4.02v2m0 4.03v2m0 4.03v2.02m0 4.02v2m0 4.03v2m0 4.03v2m0 4.03v2m0 4.03v2m0 4.03v2m0 4.02v2m0 4.03v2.02m0 4.02v2m0 4.02v2m0 4.03v2m0 4.03v2m0 4.03v1.02l-.06.78m-1.18 2.86l-.52.6-.6.5m-2.86 1.2l-.8.06h-.98m-3.98 0h-1.98m-3.98 0h-1.98m-3.98 0h-2m-3.96 0h-2m-3.96 0h-2m-3.96 0h-2m-3.96 0h-2m-3.97 0h-1.98m-3.98 0h-1.98m-4 0h-1.98m-3.97 0h-2m-3.96 0h-2m-3.97 0h-2m-3.97 0h-1.98m-3.98 0h-1.98m-3.98 0h-2m-3.96 0h-2m-3.96 0h-2m-3.96 0h-2m-3.96 0h-2m-3.97 0h-1.98m-3.98 0h-1.98m-4 0h-1.98m-3.97 0h-2m-3.96 0h-2m-3.97 0h-2m-3.97 0h-1.98m-3.98 0h-1.98m-3.98 0h-2m-3.96 0h-2m-3.96 0h-2m-3.96 0h-2m-3.96 0h-2m-3.97 0h-1.98m-3.98 0h-1.98m-4 0h-1.98m-3.97 0h-2m-3.96 0h-2m-3.97 0h-2m-3.97 0h-1.98m-3.98 0h-1.98m-3.98 0h-2m-3.96 0h-2m-3.96 0h-2m-3.96 0h-2m-3.96 0h-2m-3.97 0h-1.98m-3.98 0h-1.98m-4 0h-1.98m-3.97 0h-2m-3.96 0h-2m-3.97 0h-2m-3.97 0h-1.98m-3.98 0h-1.98m-3.98 0h-2m-3.96 0h-2m-3.96 0h-2m-3.96 0h-2m-3.96 0h-2m-3.96 0h-2m-3.97 0h-1.98m-4 0h-1.98m-3.97 0h-2m-3.96 0h-2m-3.97 0h-2m-3.97 0h-1.98m-3.98 0h-1.98m-3.98 0h-1.98m-3.98 0h-2m-3.96 0h-2m-3.96 0h-2m-3.96 0h-2m-3.96 0h-2m-3.97 0h-1.98m-4 0h-1.98m-3.97 0h-2m-3.96 0h-2m-3.97 0h-1l-.78-.07m-2.86-1.18l-.6-.5-.52-.6m-1.2-2.87l-.05-.78v-1m0-3.97v-2m0-3.96v-2m0-3.97v-2m0-3.97v-1.98m0-3.98v-2m0-3.96v-2m0-3.96v-2m0-3.96v-2m0-3.96v-2m0-3.96v-2m0-3.97v-1.98m0-3.98v-2m0-3.96v-1.98m0-3.97v-2m0-3.96v-2m0-3.97v-2m0-3.97v-1.98m0-3.98v-2m0-3.96v-2m0-3.96v-2m0-3.96v-2m0-3.96v-2m0-3.97v-1" stroke="#3a414a" fill="none"/><path d="M853.2 316.13h-.94v-.5h.95z" stroke="#3a414a" stroke-width=".05" fill="#3a414a"/><path d="M375.73 357.24l4.64 14.26h-9.27z" stroke="#3a414a" fill="#3a414a"/><path d="M707.73 254.03c15.47 0 28 7.1 28 15.84s-12.53 15.83-28 15.83h-84c-15.46 0-28-7.1-28-15.83 0-8.75 12.54-15.84 28-15.84z" stroke="#3a414a" fill="#fff"/><use xlink:href="#u" transform="matrix(1,0,0,1,600.7333333333333,259.0333333333332) translate(25.49762152777778 21.52777777777778)"/><use xlink:href="#p" transform="matrix(1,0,0,1,600.7333333333333,259.0333333333332) translate(76.30057291666667 21.52777777777778)"/><path d="M707.73 285.7c15.47 0 28 7.1 28 15.83 0 8.75-12.53 15.84-28 15.84h-84c-15.46 0-28-7.1-28-15.84s12.54-15.83 28-15.83z" stroke="#3a414a" fill="#fff"/><use xlink:href="#u" transform="matrix(1,0,0,1,600.7333333333333,290.6999999999997) translate(27.98785590277778 21.52777777777778)"/><use xlink:href="#q" transform="matrix(1,0,0,1,600.7333333333333,290.6999999999997) translate(78.79080729166667 21.52777777777778)"/><path d="M476.73 225.12h53a6 6 0 0 1 6 6v32.75a6 6 0 0 0 6 6h37.12" stroke="#3a414a" fill="none"/><path d="M476.75 225.6h-.52v-.96h.52z" stroke="#3a414a" stroke-width=".05" fill="#3a414a"/><path d="M593.6 269.87l-14.25 4.63v-9.27z" stroke="#3a414a" fill="#3a414a"/><path d="M476.73 225.12h53a6 6 0 0 1 6 6v64.4a6 6 0 0 0 6 6h37.12" stroke="#3a414a" fill="none"/><path d="M476.75 225.6h-.52v-.96h.52z" stroke="#3a414a" stroke-width=".05" fill="#3a414a"/><path d="M593.6 301.53l-14.25 4.64v-9.27z" stroke="#3a414a" fill="#3a414a"/><path d="M736.74 269.87h23a6 6 0 0 0 6-6v-14.42a6 6 0 0 1 6-6h7.1" stroke="#3a414a" fill="none"/><path d="M736.75 270.34h-.56l.03-.47-.03-.48h.55z" stroke="#3a414a" stroke-width=".05" fill="#3a414a"/><path d="M793.6 243.45l-14.25 4.64v-9.28z" stroke="#3a414a" fill="#3a414a"/><path d="M736.64 302.58h23.05a6 6 0 0 0 6-6v-47.13a6 6 0 0 1 6-6h7.15" stroke="#3a414a" fill="none"/><path d="M736.65 303.05h-.55l.08-.95h.47z" stroke="#3a414a" stroke-width=".05" fill="#3a414a"/><path d="M793.6 243.45l-14.25 4.64v-9.28z" stroke="#3a414a" fill="#3a414a"/><defs><path fill="#3a414a" d="M657 26c-323 0-524-166-541-416h195c15 169 171 246 346 246 202 0 356-106 356-265 5-203-294-238-475-293-239-73-380-191-380-389 0-252 224-419 512-419 294 0 499 171 508 396H992c-17-145-151-228-328-228-193 0-321 102-321 242 0 156 175 211 284 241l149 41c160 44 422 134 422 412 0 244-197 432-541 432" id="v"/><path fill="#3a414a" d="M338-670V0H158v-1490h180v566c73-149 190-208 336-208 226 0 379 139 379 422V0H872v-695c0-172-96-275-252-275-161 0-282 109-282 300" id="w"/><path fill="#3a414a" d="M471 26C259 26 90-98 90-318c0-256 228-303 435-329 202-27 287-16 287-108 0-139-79-219-234-219-161 0-248 86-283 164l-173-57c86-203 278-265 451-265 150 0 419 46 419 395V0H815v-152h-12C765-73 660 26 471 26zm31-159c199 0 310-134 310-271v-155c-30 35-226 55-295 64-131 17-246 59-246 186 0 116 97 176 231 176" id="x"/><path fill="#3a414a" d="M158 0v-1118h174v172h12c41-113 157-188 290-188 26 0 70 2 91 3v181c-11-2-60-10-108-10-161 0-279 109-279 260V0H158" id="y"/><path fill="#3a414a" d="M577 24c-279 0-473-224-473-580 0-354 195-576 474-576 218 0 287 134 324 193h14v-551h180V0H922v-173h-20C865-111 790 24 577 24zm27-161c203 0 314-172 314-421 0-247-108-413-314-413-212 0-317 181-317 413 0 235 108 421 317 421" id="z"/><g id="a"><use transform="matrix(0.010850694444444444,0,0,0.010850694444444444,0,0)" xlink:href="#v"/><use transform="matrix(0.010850694444444444,0,0,0.010850694444444444,14.2578125,0)" xlink:href="#w"/><use transform="matrix(0.010850694444444444,0,0,0.010850694444444444,27.39800347222222,0)" xlink:href="#x"/><use transform="matrix(0.010850694444444444,0,0,0.010850694444444444,39.87630208333333,0)" xlink:href="#y"/><use transform="matrix(0.010850694444444444,0,0,0.010850694444444444,47.87326388888888,0)" xlink:href="#z"/></g><path fill="#3a414a" d="M653-1490V0H466v-1314h-10L96-1047v-204l324-239h233" id="A"/><use transform="matrix(0.010850694444444444,0,0,0.010850694444444444,0,0)" xlink:href="#A" id="b"/><path fill="#3a414a" d="M154 0v-137l495-537c165-179 249-281 249-418 0-156-121-253-280-253-170 0-278 110-278 278H158c0-264 200-443 465-443 266 0 455 183 455 416 0 161-73 288-336 568L416-179v12h687V0H154" id="B"/><use transform="matrix(0.010850694444444444,0,0,0.010850694444444444,0,0)" xlink:href="#B" id="c"/><path fill="#3a414a" d="M338-670V0H158v-1118h173l1 207c72-158 192-221 342-221 226 0 378 139 378 422V0H872v-695c0-172-96-275-252-275-161 0-282 109-282 300" id="C"/><use transform="matrix(0.010850694444444444,0,0,0.010850694444444444,0,0)" xlink:href="#C" id="d"/><path fill="#3a414a" d="M98-1322v-168h1126v168H757V0H567v-1322H98" id="D"/><path fill="#3a414a" d="M538 24C308 24 148-78 108-271l171-41c32 123 123 178 257 178 156 0 256-77 256-169 0-77-54-128-164-154l-186-44c-203-48-300-148-300-305 0-192 176-326 414-326 230 0 351 112 402 269l-163 42c-31-80-94-158-238-158-133 0-233 69-233 162 0 83 57 129 188 160l169 40c203 48 298 149 298 302 0 196-179 339-441 339" id="E"/><path fill="#3a414a" d="M158 0v-1490h180v865h22l478-493h223L593-638 1096 0H865L456-523 338-412V0H158" id="F"/><g id="e"><use transform="matrix(0.010850694444444444,0,0,0.010850694444444444,0,0)" xlink:href="#D"/><use transform="matrix(0.010850694444444444,0,0,0.010850694444444444,12.71701388888889,0)" xlink:href="#x"/><use transform="matrix(0.010850694444444444,0,0,0.010850694444444444,25.1953125,0)" xlink:href="#E"/><use transform="matrix(0.010850694444444444,0,0,0.010850694444444444,36.92491319444444,0)" xlink:href="#F"/></g><path fill="#3a414a" d="M180 0v-1490h510c348 0 508 209 508 474 0 266-160 477-507 477H370V0H180zm190-706h312c236 0 327-133 327-310 0-176-91-307-329-307H370v617" id="G"/><path fill="#3a414a" d="M613 24c-304 0-509-231-509-576 0-350 205-580 509-580 305 0 511 230 511 580 0 345-206 576-511 576zm0-161c226 0 329-195 329-415 0-222-103-419-329-419-223 0-326 196-326 419 0 220 103 415 326 415" id="H"/><path fill="#3a414a" d="M613 24c-304 0-509-231-509-576 0-350 205-580 509-580 216 0 392 114 453 309l-173 49c-33-115-133-197-280-197-223 0-326 196-326 419 0 220 103 415 326 415 150 0 252-85 285-206l172 49C1010-95 832 24 613 24" id="I"/><path fill="#3a414a" d="M628 24c-324 0-524-230-524-574 0-343 198-582 503-582 237 0 487 146 487 559v75H286c9 234 145 362 343 362 132 0 231-58 273-172l174 48C1024-91 857 24 628 24zM287-650h624c-17-190-120-322-304-322-192 0-309 151-320 322" id="J"/><g id="f"><use transform="matrix(0.010850694444444444,0,0,0.010850694444444444,0,0)" xlink:href="#G"/><use transform="matrix(0.010850694444444444,0,0,0.010850694444444444,14.192708333333332,0)" xlink:href="#y"/><use transform="matrix(0.010850694444444444,0,0,0.010850694444444444,22.189670138888886,0)" xlink:href="#H"/><use transform="matrix(0.010850694444444444,0,0,0.010850694444444444,35.514322916666664,0)" xlink:href="#I"/><use transform="matrix(0.010850694444444444,0,0,0.010850694444444444,48.209635416666664,0)" xlink:href="#J"/><use transform="matrix(0.010850694444444444,0,0,0.010850694444444444,61.16536458333333,0)" xlink:href="#E"/><use transform="matrix(0.010850694444444444,0,0,0.010850694444444444,72.89496527777777,0)" xlink:href="#E"/><use transform="matrix(0.010850694444444444,0,0,0.010850694444444444,84.62456597222221,0)" xlink:href="#H"/><use transform="matrix(0.010850694444444444,0,0,0.010850694444444444,97.94921874999997,0)" xlink:href="#y"/></g><path fill="#333" d="M681 22C323 22 94-145 85-462h297c10 151 131 226 296 226 163 0 271-77 271-190 0-102-95-149-257-189l-164-41c-252-61-403-188-403-405 0-269 236-449 560-449 330 0 546 183 551 445H941c-11-119-106-188-259-188-156 0-244 72-244 172-3 156 226 185 373 221 250 61 445 186 445 436 0 271-213 446-575 446" id="K"/><path fill="#333" d="M513 14c-232 0-385-159-385-421v-711h300v659c0 139 76 222 202 222 127 0 217-86 217-234v-647h301V0H864l-4-232C797-74 683 14 513 14" id="L"/><path fill="#333" d="M754 19C571 19 479-89 437-179h-14V0H128v-1490h300v560h9c41-89 129-202 319-202 248 0 453 193 453 575 0 372-197 576-455 576zm-92-241c156 0 240-139 240-336 0-196-83-334-240-334-154 0-241 131-241 334 0 202 88 336 241 336" id="M"/><path fill="#333" d="M128 0v-1118h278l12 217c60-163 185-234 319-234 143 0 236 81 288 251 63-172 205-251 359-251 205 0 357 138 357 381V0h-301v-697c0-126-76-187-177-187-114 0-184 79-184 196V0H789v-705c0-109-72-179-174-179-106 0-187 74-187 208V0H128" id="N"/><path fill="#333" d="M128 0v-1118h300V0H128zm150-1264c-91 0-165-68-165-154 0-85 74-154 165-154 90 0 165 69 165 154 0 86-75 154-165 154" id="O"/><path fill="#333" d="M572 22C302 22 117-98 78-306l279-48c29 105 101 156 224 156 114 0 185-48 185-115 0-118-228-130-337-155-215-49-322-150-322-317 0-215 187-347 470-347 265 0 424 116 466 298l-266 47c-24-76-87-130-196-130-98 0-174 46-174 113 0 56 38 95 144 117l201 40c216 44 320 143 320 302 0 220-207 367-500 367" id="P"/><path fill="#333" d="M628 22C291 22 81-210 81-554c0-346 210-578 547-578 336 0 547 232 547 578 0 344-211 576-547 576zm0-236c160 0 242-146 242-341 0-197-82-341-242-341S387-753 387-555c0 195 81 341 241 341" id="Q"/><path fill="#333" d="M428-647V0H128v-1118h283l4 231c63-156 176-245 348-245 232 0 384 159 384 421V0H847v-659c0-139-76-222-202-222-128 0-217 86-217 234" id="R"/><g id="g"><use transform="matrix(0.008680555555555556,0,0,0.008680555555555556,0,0)" xlink:href="#K"/><use transform="matrix(0.008680555555555556,0,0,0.008680555555555556,11.640625,0)" xlink:href="#L"/><use transform="matrix(0.008680555555555556,0,0,0.008680555555555556,22.708333333333336,0)" xlink:href="#M"/><use transform="matrix(0.008680555555555556,0,0,0.008680555555555556,33.91493055555556,0)" xlink:href="#N"/><use transform="matrix(0.008680555555555556,0,0,0.008680555555555556,50.13888888888889,0)" xlink:href="#O"/><use transform="matrix(0.008680555555555556,0,0,0.008680555555555556,54.95659722222222,0)" xlink:href="#P"/><use transform="matrix(0.008680555555555556,0,0,0.008680555555555556,64.91319444444446,0)" xlink:href="#P"/><use transform="matrix(0.008680555555555556,0,0,0.008680555555555556,74.86979166666669,0)" xlink:href="#O"/><use transform="matrix(0.008680555555555556,0,0,0.008680555555555556,79.68750000000001,0)" xlink:href="#Q"/><use transform="matrix(0.008680555555555556,0,0,0.008680555555555556,90.5902777777778,0)" xlink:href="#R"/></g><path fill="#3a414a" d="M784 20c-382 0-662-292-662-764 0-473 280-766 662-766s660 293 660 766c0 282-99 499-260 629l192 255h-198L1049-33C969 2 880 20 784 20zm-62-486h198l156 205c112-98 183-261 183-483 0-383-209-590-475-590-268 0-477 208-477 590 0 380 209 588 477 588 54 0 106-9 154-25" id="S"/><path fill="#3a414a" d="M537 14c-226 0-379-139-379-422v-710h180v695c0 172 97 275 253 275 160 0 281-109 281-300v-670h181V0H879v-209C806-46 684 14 537 14" id="T"/><g id="h"><use transform="matrix(0.010850694444444444,0,0,0.010850694444444444,0,0)" xlink:href="#S"/><use transform="matrix(0.010850694444444444,0,0,0.010850694444444444,16.9921875,0)" xlink:href="#T"/><use transform="matrix(0.010850694444444444,0,0,0.010850694444444444,30.13237847222222,0)" xlink:href="#J"/><use transform="matrix(0.010850694444444444,0,0,0.010850694444444444,43.088107638888886,0)" xlink:href="#T"/><use transform="matrix(0.010850694444444444,0,0,0.010850694444444444,56.22829861111111,0)" xlink:href="#J"/></g><path fill="#3a414a" d="M180 0v-1490h270l367 940c28 72 75 218 110 339 35-117 81-264 110-339l362-940h271V0h-187c2-448-5-837 7-1287-157 497-311 829-483 1287H842C666-458 514-784 354-1284c12 438 5 843 7 1284H180" id="U"/><path fill="#3a414a" d="M611 442c-248 0-391-105-460-228l146-94c47 65 117 165 314 165 178 0 307-82 307-266v-224h-17C863-141 792-18 576-18c-268 0-472-195-472-546 0-346 197-568 476-568 216 0 288 133 326 193h17v-179h175V29c0 289-215 413-487 413zm-5-620c203 0 314-146 314-390 0-237-108-403-314-403-213 0-319 180-319 403 0 230 109 390 319 390" id="V"/><path fill="#3a414a" d="M158 0v-1118h175l1 205c55-151 181-225 313-225 147 0 245 90 285 228 53-141 190-228 352-228 194 0 352 125 352 384V0h-181v-749c0-161-105-225-225-225-151 0-243 103-243 244V0H807v-767c0-124-93-207-219-207-131 0-250 92-250 270V0H158" id="W"/><path fill="#3a414a" d="M598-1118v154H368v674c0 100 37 144 132 144 23 0 62-6 92-12L629-6c-37 13-88 20-134 20-193 0-307-107-307-290v-688H20v-154h168v-266h180v266h230" id="X"/><g id="i"><use transform="matrix(0.010850694444444444,0,0,0.010850694444444444,0,0)" xlink:href="#U"/><use transform="matrix(0.010850694444444444,0,0,0.010850694444444444,20.07378472222222,0)" xlink:href="#x"/><use transform="matrix(0.010850694444444444,0,0,0.010850694444444444,32.55208333333333,0)" xlink:href="#C"/><use transform="matrix(0.010850694444444444,0,0,0.010850694444444444,45.68142361111111,0)" xlink:href="#x"/><use transform="matrix(0.010850694444444444,0,0,0.010850694444444444,58.15972222222221,0)" xlink:href="#V"/><use transform="matrix(0.010850694444444444,0,0,0.010850694444444444,71.78819444444443,0)" xlink:href="#J"/><use transform="matrix(0.010850694444444444,0,0,0.010850694444444444,84.7439236111111,0)" xlink:href="#W"/><use transform="matrix(0.010850694444444444,0,0,0.010850694444444444,104.21006944444441,0)" xlink:href="#J"/><use transform="matrix(0.010850694444444444,0,0,0.010850694444444444,117.1657986111111,0)" xlink:href="#C"/><use transform="matrix(0.010850694444444444,0,0,0.010850694444444444,130.29513888888889,0)" xlink:href="#X"/></g><path fill="#3a414a" d="M158 0v-1118h180V0H158zm91-1301c-68 0-125-53-125-119s57-119 125-119c69 0 126 53 126 119s-57 119-126 119" id="Y"/><g id="j"><use transform="matrix(0.010850694444444444,0,0,0.010850694444444444,0,0)" xlink:href="#G"/><use transform="matrix(0.010850694444444444,0,0,0.010850694444444444,14.192708333333332,0)" xlink:href="#y"/><use transform="matrix(0.010850694444444444,0,0,0.010850694444444444,22.189670138888886,0)" xlink:href="#H"/><use transform="matrix(0.010850694444444444,0,0,0.010850694444444444,35.514322916666664,0)" xlink:href="#I"/><use transform="matrix(0.010850694444444444,0,0,0.010850694444444444,48.209635416666664,0)" xlink:href="#J"/><use transform="matrix(0.010850694444444444,0,0,0.010850694444444444,61.16536458333333,0)" xlink:href="#E"/><use transform="matrix(0.010850694444444444,0,0,0.010850694444444444,72.89496527777777,0)" xlink:href="#E"/><use transform="matrix(0.010850694444444444,0,0,0.010850694444444444,84.62456597222221,0)" xlink:href="#Y"/><use transform="matrix(0.010850694444444444,0,0,0.010850694444444444,90.00651041666666,0)" xlink:href="#C"/><use transform="matrix(0.010850694444444444,0,0,0.010850694444444444,103.13585069444441,0)" xlink:href="#V"/></g><path fill="#3a414a" d="M295 13c-75 0-135-60-135-135s60-135 135-135 135 60 135 135S370 13 295 13" id="Z"/><g id="k"><use transform="matrix(0.02170138888888888,0,0,0.02170138888888888,0,0)" xlink:href="#Z"/><use transform="matrix(0.02170138888888888,0,0,0.02170138888888888,12.80381944444444,0)" xlink:href="#Z"/><use transform="matrix(0.02170138888888888,0,0,0.02170138888888888,25.60763888888888,0)" xlink:href="#Z"/></g><path fill="#3a414a" d="M140 405l46-156c120 36 205 19 263-150l32-93L54-1118h197c107 313 237 620 324 950 87-331 219-637 326-950h196L606 167c-68 178-176 259-334 259-64 0-113-12-132-21" id="aa"/><g id="l"><use transform="matrix(0.010850694444444444,0,0,0.010850694444444444,0,0)" xlink:href="#G"/><use transform="matrix(0.010850694444444444,0,0,0.010850694444444444,14.192708333333332,0)" xlink:href="#y"/><use transform="matrix(0.010850694444444444,0,0,0.010850694444444444,22.90581597222222,0)" xlink:href="#Y"/><use transform="matrix(0.010850694444444444,0,0,0.010850694444444444,28.287760416666664,0)" xlink:href="#H"/><use transform="matrix(0.010850694444444444,0,0,0.010850694444444444,41.61241319444444,0)" xlink:href="#y"/><use transform="matrix(0.010850694444444444,0,0,0.010850694444444444,50.32552083333333,0)" xlink:href="#Y"/><use transform="matrix(0.010850694444444444,0,0,0.010850694444444444,55.70746527777778,0)" xlink:href="#X"/><use transform="matrix(0.010850694444444444,0,0,0.010850694444444444,63.41145833333333,0)" xlink:href="#aa"/></g><path fill="#3a414a" d="M52 0l541-1490h220L1361 0h-200l-149-416H398L254 0H52zm404-582h497c-103-290-145-390-251-756-108 377-145 460-246 756" id="ab"/><g id="m"><use transform="matrix(0.010850694444444444,0,0,0.010850694444444444,0,0)" xlink:href="#ab"/><use transform="matrix(0.010850694444444444,0,0,0.010850694444444444,15.33203125,0)" xlink:href="#E"/><use transform="matrix(0.010850694444444444,0,0,0.010850694444444444,27.061631944444443,0)" xlink:href="#E"/><use transform="matrix(0.010850694444444444,0,0,0.010850694444444444,38.791232638888886,0)" xlink:href="#Y"/><use transform="matrix(0.010850694444444444,0,0,0.010850694444444444,44.17317708333333,0)" xlink:href="#V"/><use transform="matrix(0.010850694444444444,0,0,0.010850694444444444,57.80164930555555,0)" xlink:href="#C"/><use transform="matrix(0.010850694444444444,0,0,0.010850694444444444,70.93098958333333,0)" xlink:href="#J"/><use transform="matrix(0.010850694444444444,0,0,0.010850694444444444,83.88671875,0)" xlink:href="#y"/></g><path fill="#3a414a" d="M338-1490V0H158v-1490h180" id="ac"/><g id="n"><use transform="matrix(0.010850694444444444,0,0,0.010850694444444444,0,0)" xlink:href="#v"/><use transform="matrix(0.010850694444444444,0,0,0.010850694444444444,14.2578125,0)" xlink:href="#I"/><use transform="matrix(0.010850694444444444,0,0,0.010850694444444444,26.953125,0)" xlink:href="#w"/><use transform="matrix(0.010850694444444444,0,0,0.010850694444444444,40.09331597222222,0)" xlink:href="#J"/><use transform="matrix(0.010850694444444444,0,0,0.010850694444444444,53.049045138888886,0)" xlink:href="#z"/><use transform="matrix(0.010850694444444444,0,0,0.010850694444444444,66.65581597222221,0)" xlink:href="#T"/><use transform="matrix(0.010850694444444444,0,0,0.010850694444444444,79.79600694444443,0)" xlink:href="#ac"/><use transform="matrix(0.010850694444444444,0,0,0.010850694444444444,85.17795138888887,0)" xlink:href="#J"/><use transform="matrix(0.010850694444444444,0,0,0.010850694444444444,98.13368055555556,0)" xlink:href="#y"/></g><path fill="#3a414a" d="M180 0v-1490h224l606 953c40 63 108 177 176 312-27-437-7-821-13-1265h190V0h-226C860-448 622-778 356-1262c27 476 11 792 15 1262H180" id="ad"/><g id="o"><use transform="matrix(0.010850694444444444,0,0,0.010850694444444444,0,0)" xlink:href="#ad"/><use transform="matrix(0.010850694444444444,0,0,0.010850694444444444,16.74262152777778,0)" xlink:href="#v"/><use transform="matrix(0.010850694444444444,0,0,0.010850694444444444,31.000434027777775,0)" xlink:href="#A"/></g><path fill="#3a414a" d="M646 20c-332 0-524-278-524-764 0-483 194-766 524-766s524 283 524 766c0 485-191 764-524 764zm0-166c218 0 341-220 341-598 0-380-123-601-341-601s-341 222-341 601c0 378 123 598 341 598" id="ae"/><g id="p"><use transform="matrix(0.010850694444444444,0,0,0.010850694444444444,0,0)" xlink:href="#G"/><use transform="matrix(0.010850694444444444,0,0,0.010850694444444444,14.192708333333332,0)" xlink:href="#ae"/></g><g id="q"><use transform="matrix(0.010850694444444444,0,0,0.010850694444444444,0,0)" xlink:href="#G"/><use transform="matrix(0.010850694444444444,0,0,0.010850694444444444,14.192708333333332,0)" xlink:href="#A"/></g><path fill="#3a414a" d="M458 0L52-1490h194c108 439 233 855 324 1313 92-459 221-873 331-1313h216c110 438 234 854 330 1307 92-455 216-869 323-1307h196L1558 0h-221l-256-944c-26-95-50-200-73-331-22 122-44 223-73 331L680 0H458" id="af"/><g id="r"><use transform="matrix(0.010850694444444444,0,0,0.010850694444444444,0,0)" xlink:href="#af"/><use transform="matrix(0.010850694444444444,0,0,0.010850694444444444,20.768229166666668,0)" xlink:href="#H"/><use transform="matrix(0.010850694444444444,0,0,0.010850694444444444,34.09288194444444,0)" xlink:href="#y"/><use transform="matrix(0.010850694444444444,0,0,0.010850694444444444,42.80598958333333,0)" xlink:href="#F"/><use transform="matrix(0.010850694444444444,0,0,0.010850694444444444,54.50303819444444,0)" xlink:href="#J"/><use transform="matrix(0.010850694444444444,0,0,0.010850694444444444,67.45876736111111,0)" xlink:href="#y"/></g><g id="s"><use transform="matrix(0.010850694444444444,0,0,0.010850694444444444,0,0)" xlink:href="#G"/><use transform="matrix(0.010850694444444444,0,0,0.010850694444444444,14.073350694444445,0)" xlink:href="#H"/><use transform="matrix(0.010850694444444444,0,0,0.010850694444444444,27.39800347222222,0)" xlink:href="#H"/><use transform="matrix(0.010850694444444444,0,0,0.010850694444444444,40.72265625,0)" xlink:href="#ac"/></g><path fill="#333" d="M135 0v-1490h581c339 0 533 192 533 485 0 204-94 351-264 424L1302 0H964L680-532H440V0H135zm305-779h220c186 0 274-77 274-226 0-150-88-233-275-233H440v459" id="ag"/><path fill="#333" d="M633 22C291 22 81-200 81-553c0-345 210-579 537-579 292 0 525 185 525 567v84H378c7 183 109 277 260 277 105 0 184-46 216-132l272 51C1071-99 893 22 633 22zM380-669h474c-15-146-94-237-233-237-143 0-229 99-241 237" id="ah"/><path fill="#333" d="M818-733v240H140v-240h678" id="ai"/><path fill="#333" d="M628 22C291 22 81-210 81-554c0-346 210-578 547-578 265 0 455 142 497 372l-279 52c-25-116-99-188-215-188-160 0-244 139-244 341 0 200 84 341 244 341 116 0 193-74 217-195l279 51C1085-123 896 22 628 22" id="aj"/><path fill="#333" d="M428-647V0H128v-1490h294v586c65-146 175-228 341-228 232 0 385 159 385 421V0H847v-659c0-139-76-222-202-222-128 0-217 86-217 234" id="ak"/><path fill="#333" d="M537 19C279 19 81-185 81-557c0-382 206-575 454-575 190 0 278 113 318 202h10v-560h300V0H868v-179h-15C812-89 719 19 537 19zm92-241c153 0 240-134 240-336 0-203-86-334-240-334-158 0-240 138-240 334 0 197 84 336 240 336" id="al"/><path fill="#333" d="M428-1490V0H128v-1490h300" id="am"/><path fill="#333" d="M625 442c-280 0-454-114-503-274l258-72c28 63 97 128 243 128 153 0 246-69 246-216v-206h-23C805-108 717-16 536-16 284-16 81-191 81-561c0-378 208-571 456-571 188 0 280 113 321 202h13v-188h295V-9c0 303-226 451-541 451zm5-686c153 0 240-119 240-319 0-198-86-329-240-329-158 0-241 137-241 329 0 195 85 319 241 319" id="an"/><g id="t"><use transform="matrix(0.008680555555555556,0,0,0.008680555555555556,0,0)" xlink:href="#ag"/><use transform="matrix(0.008680555555555556,0,0,0.008680555555555556,11.458333333333334,0)" xlink:href="#ah"/><use transform="matrix(0.008680555555555556,0,0,0.008680555555555556,22.048611111111114,0)" xlink:href="#ai"/><use transform="matrix(0.008680555555555556,0,0,0.008680555555555556,30.364583333333336,0)" xlink:href="#P"/><use transform="matrix(0.008680555555555556,0,0,0.008680555555555556,40.32118055555556,0)" xlink:href="#aj"/><use transform="matrix(0.008680555555555556,0,0,0.008680555555555556,50.78125,0)" xlink:href="#ak"/><use transform="matrix(0.008680555555555556,0,0,0.008680555555555556,61.848958333333336,0)" xlink:href="#ah"/><use transform="matrix(0.008680555555555556,0,0,0.008680555555555556,72.43923611111111,0)" xlink:href="#al"/><use transform="matrix(0.008680555555555556,0,0,0.008680555555555556,83.64583333333334,0)" xlink:href="#L"/><use transform="matrix(0.008680555555555556,0,0,0.008680555555555556,94.71354166666667,0)" xlink:href="#am"/><use transform="matrix(0.008680555555555556,0,0,0.008680555555555556,99.53125,0)" xlink:href="#O"/><use transform="matrix(0.008680555555555556,0,0,0.008680555555555556,104.34895833333333,0)" xlink:href="#R"/><use transform="matrix(0.008680555555555556,0,0,0.008680555555555556,115.41666666666666,0)" xlink:href="#an"/></g><g id="u"><use transform="matrix(0.010850694444444444,0,0,0.010850694444444444,0,0)" xlink:href="#ad"/><use transform="matrix(0.010850694444444444,0,0,0.010850694444444444,16.74262152777778,0)" xlink:href="#v"/><use transform="matrix(0.010850694444444444,0,0,0.010850694444444444,31.000434027777775,0)" xlink:href="#B"/></g></defs></g></svg>