<svg xmlns="http://www.w3.org/2000/svg" xmlns:xlink="http://www.w3.org/1999/xlink" xmlns:lucid="lucid" width="3371" height="1451"><g transform="translate(1170.5 1520.5)" lucid:page-tab-id="0_0"><path d="M-1500-1500h4000V0h-4000z" fill="#fff"/><path d="M-380-1494a6 6 0 0 1 6-6h2548a6 6 0 0 1 6 6V-96a6 6 0 0 1-6 6H-374a6 6 0 0 1-6-6z" stroke="#3a414a" fill="#e3fae3"/><use xlink:href="#a" transform="matrix(1,0,0,1,-375,-1495) translate(1148.5246913580247 24.888888888888886)"/><use xlink:href="#b" transform="matrix(1,0,0,1,-375,-1495) translate(1294.5740740740741 24.888888888888886)"/><path d="M64.42-1369.74a6 6 0 0 1 6-6h752.43a6 6 0 0 1 6 6v656.05a6 6 0 0 1-6 6H70.42a6 6 0 0 1-6-6z" stroke="#3a414a" stroke-width="3" fill="#fff"/><path d="M37.13-1394a6 6 0 0 1 6-6h752.43a6 6 0 0 1 6 6v656.05a6 6 0 0 1-6 6H43.13a6 6 0 0 1-6-6z" stroke="#3a414a" stroke-width="3" fill="#fff"/><use xlink:href="#c" transform="matrix(1,0,0,1,42.12899448758964,-1395) translate(324.0493827160494 24.888888888888886)"/><use xlink:href="#d" transform="matrix(1,0,0,1,42.12899448758964,-1395) translate(377.5 62.222222222222214)"/><use xlink:href="#e" transform="matrix(1,0,0,1,42.12899448758964,-1395) translate(377.5 99.55555555555554)"/><path d="M299.35-844a6 6 0 0 1 6-6h228a6 6 0 0 1 6 6v60.4a6 6 0 0 1-6 6h-228a6 6 0 0 1-6-6z" stroke="#000" stroke-opacity="0" fill="#fff" fill-opacity="0"/><use xlink:href="#f" transform="matrix(1,0,0,1,304.34630683625807,-845) translate(110.98765432098766 23.11111111111111)"/><use xlink:href="#g" transform="matrix(1,0,0,1,304.34630683625807,-845) translate(110.98765432098766 36.977777777777774)"/><use xlink:href="#h" transform="matrix(1,0,0,1,304.34630683625807,-845) translate(110.98765432098766 50.84444444444445)"/><path d="M291.93-1323.94a8.84 8.84 0 0 1 9.93 0l62.74 42.6a4.07 4.07 0 0 1 0 6.73l-62.74 42.6a8.84 8.84 0 0 1-9.93 0l-62.74-42.6a4.07 4.07 0 0 1 0-6.75z" stroke="#3a414a" fill="#fff"/><use xlink:href="#i" transform="matrix(1,0,0,1,229.2302858515933,-1322.3101659751037) translate(31.233395061728398 36.47222222222222)"/><use xlink:href="#j" transform="matrix(1,0,0,1,229.2302858515933,-1322.3101659751037) translate(28.517345679012347 57.80555555555555)"/><path d="M64.42-1072.87a6 6 0 0 1 6-6h706.7a6 6 0 0 1 6 6v222.6a6 6 0 0 1-6 6H70.43a6 6 0 0 1-6-6z" stroke="#e81313" stroke-width="2" fill="#fff"/><use xlink:href="#k" transform="matrix(1,0,0,1,69.41977409502323,-1073.869294605809) translate(323.08024691358025 17.77777777777778)"/><path d="M146.6-1049.95a8.84 8.84 0 0 1 9.93 0l62.74 42.6a4.07 4.07 0 0 1 0 6.73l-62.74 42.6a8.84 8.84 0 0 1-9.93 0l-62.74-42.6a4.07 4.07 0 0 1 0-6.74z" stroke="#3a414a" fill="#fff"/><use xlink:href="#i" transform="matrix(1,0,0,1,83.89695251825958,-1048.3250345781462) translate(31.233395061728398 36.47222222222222)"/><use xlink:href="#j" transform="matrix(1,0,0,1,83.89695251825958,-1048.3250345781462) translate(28.517345679012347 57.80555555555555)"/><path d="M146.6-945.96a8.84 8.84 0 0 1 9.93 0l62.74 42.6a4.07 4.07 0 0 1 0 6.74l-62.74 42.6a8.84 8.84 0 0 1-9.93 0l-62.74-42.6a4.07 4.07 0 0 1 0-6.74z" stroke="#3a414a" fill="#fff"/><use xlink:href="#i" transform="matrix(1,0,0,1,83.89695251825958,-944.3250345781463) translate(31.233395061728398 36.47222222222222)"/><use xlink:href="#j" transform="matrix(1,0,0,1,83.89695251825958,-944.3250345781463) translate(28.517345679012347 57.80555555555555)"/><path d="M291.93-1049.95a8.84 8.84 0 0 1 9.93 0l62.74 42.6a4.07 4.07 0 0 1 0 6.73l-62.74 42.6a8.84 8.84 0 0 1-9.93 0l-62.74-42.6a4.07 4.07 0 0 1 0-6.74z" stroke="#1071e5" stroke-width="3" fill="#fff"/><use xlink:href="#l" transform="matrix(1,0,0,1,229.23028585159307,-1048.3250345781462) translate(31.233395061728398 36.47222222222222)"/><use xlink:href="#m" transform="matrix(1,0,0,1,229.23028585159307,-1048.3250345781462) translate(28.517345679012347 57.80555555555555)"/><path d="M346.9-1030.88a6 6 0 0 1 6-6h58a6 6 0 0 1 6 6v48a6 6 0 0 1-6 6h-58a6 6 0 0 1-6-6z" stroke="#000" stroke-opacity="0" fill="#fff" fill-opacity="0"/><use xlink:href="#n" transform="matrix(1,0,0,1,351.8969525182593,-1031.884163208852) translate(20.74074074074074 30.27777777777778)"/><path d="M346.9-928.88a6 6 0 0 1 6-6h58a6 6 0 0 1 6 6v48a6 6 0 0 1-6 6h-58a6 6 0 0 1-6-6z" stroke="#000" stroke-opacity="0" stroke-width="2" fill="#fff" fill-opacity="0"/><use xlink:href="#n" transform="matrix(1,0,0,1,351.8969525182593,-929.8841632088519) translate(20.74074074074074 30.27777777777778)"/><path d="M558.9-894a6 6 0 0 1 6-6h78a6 6 0 0 1 6 6v28a6 6 0 0 1-6 6h-78a6 6 0 0 1-6-6z" stroke="#000" stroke-opacity="0" fill="#fff" fill-opacity="0"/><use xlink:href="#o" transform="matrix(1,0,0,1,563.8969525182588,-895) translate(36.91358024691358 17.777777777777768)"/><use xlink:href="#p" transform="matrix(1,0,0,1,563.8969525182588,-895) translate(36.91358024691358 28.44444444444443)"/><use xlink:href="#q" transform="matrix(1,0,0,1,563.8969525182588,-895) translate(36.91358024691358 39.111111111111086)"/><path d="M291.93-945.5a8.84 8.84 0 0 1 9.93 0l62.74 42.6a4.07 4.07 0 0 1 0 6.73l-62.74 42.6a8.84 8.84 0 0 1-9.93 0l-62.74-42.6a4.07 4.07 0 0 1 0-6.74z" stroke="#3a414a" fill="#fff"/><use xlink:href="#i" transform="matrix(1,0,0,1,229.2302858515933,-943.8692946058092) translate(31.233395061728398 36.47222222222222)"/><use xlink:href="#j" transform="matrix(1,0,0,1,229.2302858515933,-943.8692946058092) translate(28.517345679012347 57.80555555555555)"/><path d="M-250-1414a6 6 0 0 1 6-6h148a6 6 0 0 1 6 6v1258a6 6 0 0 1-6 6h-148a6 6 0 0 1-6-6z" stroke="#3a414a" stroke-width="3" fill="#fff"/><path d="M-270-1434a6 6 0 0 1 6-6h148a6 6 0 0 1 6 6v1258a6 6 0 0 1-6 6h-148a6 6 0 0 1-6-6z" stroke="#3a414a" stroke-width="3" fill="#fff"/><use xlink:href="#r" transform="matrix(1,0,0,1,-265,-1435) translate(7.851851851851862 635.2013888888889)"/><path d="M55.22-563.57a6 6 0 0 1 6-6h761.63a6 6 0 0 1 6 6V-216a6 6 0 0 1-6 6H61.22a6 6 0 0 1-6-6z" stroke="#3a414a" stroke-width="3" fill="#fff"/><path d="M37.13-581.5a6 6 0 0 1 6-6h761.64a6 6 0 0 1 6 6V-236a6 6 0 0 1-6 6H43.13a6 6 0 0 1-6-6z" stroke="#3a414a" stroke-width="3" fill="#fff"/><use xlink:href="#s" transform="matrix(1,0,0,1,42.128994487589694,-582.4867169423876) translate(313.94444444444446 24.888888888888886)"/><use xlink:href="#d" transform="matrix(1,0,0,1,42.128994487589694,-582.4867169423876) translate(382 62.222222222222214)"/><use xlink:href="#e" transform="matrix(1,0,0,1,42.128994487589694,-582.4867169423876) translate(382 99.55555555555554)"/><path d="M64.75-533.08a6 6 0 0 1 6-6H786.1a6 6 0 0 1 6 6v107.24a6 6 0 0 1-6 6H70.76a6 6 0 0 1-6-6z" stroke="#3a414a" fill="#fff"/><use xlink:href="#t" transform="matrix(1,0,0,1,69.74838348865643,-534.0834550147349) translate(296.96296296296293 17.77777777777778)"/><use xlink:href="#u" transform="matrix(1,0,0,1,69.74838348865643,-534.0834550147349) translate(352.02469135802465 17.77777777777778)"/><path d="M64.75-395.34a6 6 0 0 1 6-6H786.1a6 6 0 0 1 6 6v107.25a6 6 0 0 1-6 6H70.76a6 6 0 0 1-6-6z" stroke="#3a414a" fill="#fff"/><use xlink:href="#t" transform="matrix(1,0,0,1,69.74838348865671,-396.33698966024133) translate(296.96296296296293 17.77777777777778)"/><use xlink:href="#u" transform="matrix(1,0,0,1,69.74838348865671,-396.33698966024133) translate(352.02469135802465 17.77777777777778)"/><path d="M299.35-284a6 6 0 0 1 6-6h228a6 6 0 0 1 6 6v18a6 6 0 0 1-6 6h-228a6 6 0 0 1-6-6z" stroke="#000" stroke-opacity="0" fill="#fff" fill-opacity="0"/><use xlink:href="#o" transform="matrix(1,0,0,1,304.3463068362581,-285) translate(111.91358024691358 17.777777777777768)"/><use xlink:href="#p" transform="matrix(1,0,0,1,304.3463068362581,-285) translate(111.91358024691358 28.44444444444443)"/><use xlink:href="#q" transform="matrix(1,0,0,1,304.3463068362581,-285) translate(111.91358024691358 39.111111111111086)"/><path d="M2070-329c0 65.72-221.62 119-495 119s-495-53.28-495-119v-952c0-65.72 221.62-119 495-119s495 53.28 495 119z" stroke="#3a414a" stroke-width="3" fill="#fff"/><path d="M2070-1281c0 65.72-221.62 119-495 119s-495-53.28-495-119" stroke="#3a414a" stroke-width="3" fill="none"/><path d="M1138.23-1088.88a6 6 0 0 1 6-6h159.54a6 6 0 0 1 6 6v188a6 6 0 0 1-6 6h-159.54a6 6 0 0 1-6-6z" stroke="#3a414a" stroke-width="2" fill="#fff"/><use xlink:href="#v" transform="matrix(1,0,0,1,1143.2352941176468,-1089.884163208852) translate(3.271604938271622 14.222222222222221)"/><use xlink:href="#w" transform="matrix(1,0,0,1,1143.2352941176468,-1089.884163208852) translate(80.75308641975309 14.222222222222221)"/><use xlink:href="#x" transform="matrix(1,0,0,1,1143.2352941176468,-1089.884163208852) translate(23.790123456790134 35.55555555555556)"/><use xlink:href="#y" transform="matrix(1,0,0,1,1143.2352941176468,-1089.884163208852) translate(83.88888888888889 35.55555555555556)"/><path d="M1138.73-1039.5h170.77" stroke="#3a414a" stroke-linecap="round" fill="none"/><path d="M1412.77-1088.88a6 6 0 0 1 6-6h159.54a6 6 0 0 1 6 6v188a6 6 0 0 1-6 6h-159.53a6 6 0 0 1-6-6z" stroke="#3a414a" stroke-width="2" fill="#fff"/><use xlink:href="#v" transform="matrix(1,0,0,1,1417.7731092436977,-1089.884163208852) translate(3.271604938271622 14.222222222222221)"/><use xlink:href="#w" transform="matrix(1,0,0,1,1417.7731092436977,-1089.884163208852) translate(80.75308641975309 14.222222222222221)"/><use xlink:href="#z" transform="matrix(1,0,0,1,1417.7731092436977,-1089.884163208852) translate(26.234567901234584 35.55555555555556)"/><use xlink:href="#A" transform="matrix(1,0,0,1,1417.7731092436977,-1089.884163208852) translate(94.28395061728395 35.55555555555556)"/><path d="M1413.27-1039.5h171.23" stroke="#3a414a" stroke-linecap="round" fill="none"/><path d="M1614.5-1088.88a6 6 0 0 1 6-6h159.53a6 6 0 0 1 6 6v188a6 6 0 0 1-6 6H1620.5a6 6 0 0 1-6-6z" stroke="#3a414a" stroke-width="2" fill="#fff"/><use xlink:href="#B" transform="matrix(1,0,0,1,1619.4946487069403,-1089.884163208852) translate(23.148148148148167 14.222222222222221)"/><use xlink:href="#C" transform="matrix(1,0,0,1,1619.4946487069403,-1089.884163208852) translate(93.46913580246914 14.222222222222221)"/><path d="M1615-1039.5h169.5" stroke="#3a414a" stroke-linecap="round" fill="none"/><path d="M1816.08-1088.88a6 6 0 0 1 6-6h159.54a6 6 0 0 1 6 6v188a6 6 0 0 1-6 6h-159.54a6 6 0 0 1-6-6z" stroke="#3a414a" stroke-width="2" fill="#fff"/><use xlink:href="#D" transform="matrix(1,0,0,1,1821.0816453700122,-1089.884163208852) translate(33.54320987654322 14.222222222222221)"/><use xlink:href="#C" transform="matrix(1,0,0,1,1821.0816453700122,-1089.884163208852) translate(83.07407407407408 14.222222222222221)"/><path d="M1816.58-1039.5h167.92" stroke="#3a414a" stroke-linecap="round" fill="none"/><path d="M1138.23-514a6 6 0 0 1 6-6h159.54a6 6 0 0 1 6 6v188a6 6 0 0 1-6 6h-159.54a6 6 0 0 1-6-6z" stroke="#3a414a" stroke-width="2" fill="#fff"/><use xlink:href="#v" transform="matrix(1,0,0,1,1143.235294117647,-515) translate(19.567901234567913 14.222222222222221)"/><use xlink:href="#C" transform="matrix(1,0,0,1,1143.235294117647,-515) translate(97.04938271604938 14.222222222222221)"/><path d="M1138.73-464.62h170.77" stroke="#3a414a" stroke-linecap="round" fill="none"/><path d="M1341.07-514a6 6 0 0 1 6-6h159.54a6 6 0 0 1 6 6v188a6 6 0 0 1-6 6h-159.53a6 6 0 0 1-6-6z" stroke="#3a414a" stroke-width="2" fill="#fff"/><use xlink:href="#E" transform="matrix(1,0,0,1,1346.0660772783688,-515) translate(27.740740740740755 14.222222222222221)"/><use xlink:href="#C" transform="matrix(1,0,0,1,1346.0660772783688,-515) translate(88.87654320987654 14.222222222222221)"/><path d="M1341.57-464.62h167.93" stroke="#3a414a" stroke-linecap="round" fill="none"/><path d="M1475.17-1304.87a6 6 0 0 1 6-6h187.66a6 6 0 0 1 6 6v48a6 6 0 0 1-6 6h-187.66a6 6 0 0 1-6-6z" stroke="#000" stroke-opacity="0" fill="#fff" fill-opacity="0"/><use xlink:href="#F" transform="matrix(1,0,0,1,1480.1680672268908,-1305.869294605809) translate(7.8024691358024825 31.138888888888886)"/><g fill="none"><path d="M1982.9-880a6 6 0 0 1 6 6v68a6 6 0 0 1-6 6h-566.2a6 6 0 0 1-6-6v-68a6 6 0 0 1 6-6z"/><path d="M1410.7-880c0 5.52 4.48 10 10 10h269.1c5.53 0 10 4.48 10 10 0-5.52 4.48-10 10-10h269.1c5.54 0 10-4.48 10-10" stroke="#3a414a"/></g><path d="M1987.62-1018.88a6 6 0 0 1 6-6h37.1a6 6 0 0 1 6 6v48a6 6 0 0 1-6 6h-37.1a6 6 0 0 1-6-6z" stroke="#000" stroke-opacity="0" fill="#fff" fill-opacity="0"/><use xlink:href="#n" transform="matrix(1,0,0,1,1992.62061010845,-1019.884163208852) translate(10.74074074074074 30.27777777777778)"/><path d="M1599.98-864a6 6 0 0 1 6-6h187.66a6 6 0 0 1 6 6v48a6 6 0 0 1-6 6h-187.66a6 6 0 0 1-6-6z" stroke="#000" stroke-opacity="0" fill="#fff" fill-opacity="0"/><use xlink:href="#G" transform="matrix(1,0,0,1,1604.976028547012,-865) translate(8.012345679012384 29.84722222222222)"/><use xlink:href="#H" transform="matrix(1,0,0,1,1604.976028547012,-865) translate(118.77777777777777 29.84722222222222)"/><path d="M-1150-1494a6 6 0 0 1 6-6h465.33a6 6 0 0 1 6 6V-96a6 6 0 0 1-6 6H-1144a6 6 0 0 1-6-6z" stroke="#3a414a" fill="#fcfcca"/><use xlink:href="#I" transform="matrix(1,0,0,1,-1145,-1495) translate(62.37037037037038 24.888888888888886)"/><use xlink:href="#J" transform="matrix(1,0,0,1,-1145,-1495) translate(251.9753086419753 24.888888888888886)"/><path d="M-1040.55-1324a6 6 0 0 1 6-6h262a6 6 0 0 1 6 6v388a6 6 0 0 1-6 6h-262a6 6 0 0 1-6-6z" stroke="#3a414a" stroke-width="3" fill="#fff"/><use xlink:href="#K" transform="matrix(1,0,0,1,-1035.5506456820015,-1325.000000000098) translate(8.722222222222243 165.04513888888889)"/><use xlink:href="#L" transform="matrix(1,0,0,1,-1035.5506456820015,-1325.000000000098) translate(86.41358024691358 165.04513888888889)"/><use xlink:href="#M" transform="matrix(1,0,0,1,-1035.5506456820015,-1325.000000000098) translate(132 202.3784722222222)"/><use xlink:href="#N" transform="matrix(1,0,0,1,-1035.5506456820015,-1325.000000000098) translate(46.09876543209877 239.71180555555551)"/><use xlink:href="#O" transform="matrix(1,0,0,1,-1035.5506456820015,-1325.000000000098) translate(113.33333333333333 239.71180555555551)"/><use xlink:href="#P" transform="matrix(1,0,0,1,-1035.5506456820015,-1325.000000000098) translate(186.87654320987656 239.71180555555551)"/><path d="M-1020-614a6 6 0 0 1 6-6h268.55a6 6 0 0 1 6 6v388a6 6 0 0 1-6 6H-1014a6 6 0 0 1-6-6z" stroke="#3a414a" stroke-width="3" fill="#fff"/><path d="M-1040.55-630.67a6 6 0 0 1 6-6H-766a6 6 0 0 1 6 6v388a6 6 0 0 1-6 6h-268.55a6 6 0 0 1-6-6z" stroke="#3a414a" stroke-width="3" fill="#fff"/><use xlink:href="#a" transform="matrix(1,0,0,1,-1035.5506456820015,-631.6666666666674) translate(9.283950617283978 201.60763888888889)"/><use xlink:href="#Q" transform="matrix(1,0,0,1,-1035.5506456820015,-631.6666666666674) translate(155.33333333333331 201.60763888888889)"/><path d="M498.9-1056.67a6 6 0 0 1 6-6h198a6 6 0 0 1 6 6v65.34a6 6 0 0 1-6 6h-198a6 6 0 0 1-6-6z" stroke="#3a414a" fill="#fff"/><use xlink:href="#D" transform="matrix(1,0,0,1,510.8969525182604,-1050.6666666666667) translate(50.487654320987666 20.97222222222222)"/><use xlink:href="#R" transform="matrix(1,0,0,1,510.8969525182604,-1050.6666666666667) translate(100.01851851851852 20.97222222222222)"/><use xlink:href="#S" transform="matrix(1,0,0,1,510.8969525182604,-1050.6666666666667) translate(66.83333333333334 42.30555555555556)"/><path d="M498.9-968.67a6 6 0 0 1 6-6h198a6 6 0 0 1 6 6v65.34a6 6 0 0 1-6 6h-198a6 6 0 0 1-6-6z" stroke="#3a414a" fill="#fff"/><use xlink:href="#B" transform="matrix(1,0,0,1,510.89695251825947,-962.6666666666667) translate(40.09259259259261 20.97222222222222)"/><use xlink:href="#R" transform="matrix(1,0,0,1,510.89695251825947,-962.6666666666667) translate(110.41358024691358 20.97222222222222)"/><use xlink:href="#S" transform="matrix(1,0,0,1,510.89695251825947,-962.6666666666667) translate(66.83333333333334 42.30555555555556)"/><path d="M64.42-1336.85a6 6 0 0 1 6-6h706.7a6 6 0 0 1 6 6v222.58a6 6 0 0 1-6 6H70.43a6 6 0 0 1-6-6z" stroke="#e81313" stroke-width="2" fill="#fff"/><use xlink:href="#k" transform="matrix(1,0,0,1,69.41977409502346,-1337.8544260027666) translate(323.08024691358025 17.77777777777778)"/><path d="M146.6-1313.94a8.84 8.84 0 0 1 9.93 0l62.74 42.6a4.07 4.07 0 0 1 0 6.73l-62.74 42.6a8.84 8.84 0 0 1-9.93 0l-62.74-42.6a4.07 4.07 0 0 1 0-6.75z" stroke="#3a414a" fill="#fff"/><use xlink:href="#i" transform="matrix(1,0,0,1,83.89695251825981,-1312.3101659751037) translate(31.233395061728398 36.47222222222222)"/><use xlink:href="#j" transform="matrix(1,0,0,1,83.89695251825981,-1312.3101659751037) translate(28.517345679012347 57.80555555555555)"/><path d="M146.6-1209.94a8.84 8.84 0 0 1 9.93 0l62.74 42.6a4.07 4.07 0 0 1 0 6.73l-62.74 42.6a8.84 8.84 0 0 1-9.93 0l-62.74-42.6a4.07 4.07 0 0 1 0-6.75z" stroke="#3a414a" fill="#fff"/><use xlink:href="#i" transform="matrix(1,0,0,1,83.89695251825981,-1208.3101659751037) translate(31.233395061728398 36.47222222222222)"/><use xlink:href="#j" transform="matrix(1,0,0,1,83.89695251825981,-1208.3101659751037) translate(28.517345679012347 57.80555555555555)"/><path d="M291.93-1209.94a8.84 8.84 0 0 1 9.93 0l62.74 42.6a4.07 4.07 0 0 1 0 6.73l-62.74 42.6a8.84 8.84 0 0 1-9.93 0l-62.74-42.6a4.07 4.07 0 0 1 0-6.75z" stroke="#3a414a" fill="#fff"/><g><use xlink:href="#i" transform="matrix(1,0,0,1,229.2302858515933,-1208.3101659751037) translate(31.233395061728398 36.47222222222222)"/><use xlink:href="#j" transform="matrix(1,0,0,1,229.2302858515933,-1208.3101659751037) translate(28.517345679012347 57.80555555555555)"/></g><path d="M346.9-1294.87a6 6 0 0 1 6-6h58a6 6 0 0 1 6 6v48a6 6 0 0 1-6 6h-58a6 6 0 0 1-6-6z" stroke="#000" stroke-opacity="0" fill="#fff" fill-opacity="0"/><g><use xlink:href="#n" transform="matrix(1,0,0,1,351.8969525182595,-1295.869294605809) translate(20.74074074074074 30.27777777777778)"/></g><path d="M346.9-1192.87a6 6 0 0 1 6-6h58a6 6 0 0 1 6 6v48a6 6 0 0 1-6 6h-58a6 6 0 0 1-6-6z" stroke="#000" stroke-opacity="0" fill="#fff" fill-opacity="0"/><g><use xlink:href="#n" transform="matrix(1,0,0,1,351.8969525182595,-1193.869294605809) translate(20.74074074074074 30.27777777777778)"/></g><path d="M558.9-1157.54a6 6 0 0 1 6-6h78a6 6 0 0 1 6 6v28a6 6 0 0 1-6 6h-78a6 6 0 0 1-6-6z" stroke="#000" stroke-opacity="0" fill="#fff" fill-opacity="0"/><g><use xlink:href="#o" transform="matrix(1,0,0,1,563.8969525182588,-1158.5359612724758) translate(36.91358024691358 17.777777777777768)"/><use xlink:href="#p" transform="matrix(1,0,0,1,563.8969525182588,-1158.5359612724758) translate(36.91358024691358 28.44444444444443)"/><use xlink:href="#q" transform="matrix(1,0,0,1,563.8969525182588,-1158.5359612724758) translate(36.91358024691358 39.111111111111086)"/></g><path d="M498.9-1322.87a6 6 0 0 1 6-6h198a6 6 0 0 1 6 6v65.33a6 6 0 0 1-6 6h-198a6 6 0 0 1-6-6z" stroke="#3a414a" fill="#fff"/><g><use xlink:href="#D" transform="matrix(1,0,0,1,510.89695251825947,-1316.869294605809) translate(50.487654320987666 20.97222222222222)"/><use xlink:href="#R" transform="matrix(1,0,0,1,510.89695251825947,-1316.869294605809) translate(100.01851851851852 20.97222222222222)"/><use xlink:href="#S" transform="matrix(1,0,0,1,510.89695251825947,-1316.869294605809) translate(66.83333333333334 42.30555555555556)"/></g><path d="M498.9-1234.87a6 6 0 0 1 6-6h198a6 6 0 0 1 6 6v65.33a6 6 0 0 1-6 6h-198a6 6 0 0 1-6-6z" stroke="#3a414a" fill="#fff"/><g><use xlink:href="#B" transform="matrix(1,0,0,1,510.89695251825856,-1228.869294605809) translate(40.09259259259261 20.97222222222222)"/><use xlink:href="#R" transform="matrix(1,0,0,1,510.89695251825856,-1228.869294605809) translate(110.41358024691358 20.97222222222222)"/><use xlink:href="#S" transform="matrix(1,0,0,1,510.89695251825856,-1228.869294605809) translate(66.83333333333334 42.30555555555556)"/></g><path d="M819.6-341.72h231.93" stroke="#1071e5" stroke-width="6" fill="none"/><path d="M802.32-341.72l14.26-4.63v9.27zM1068.8-341.72l-14.27 4.64v-9.27z" stroke="#1071e5" stroke-width="6" fill="#1071e5"/><path d="M291.93-1313.94a8.84 8.84 0 0 1 9.93 0l62.74 42.6a4.07 4.07 0 0 1 0 6.73l-62.74 42.6a8.84 8.84 0 0 1-9.93 0l-62.74-42.6a4.07 4.07 0 0 1 0-6.75z" stroke="#3a414a" fill="#fff"/><g><use xlink:href="#i" transform="matrix(1,0,0,1,229.2302858515933,-1312.3101659751037) translate(31.233395061728398 36.47222222222222)"/><use xlink:href="#j" transform="matrix(1,0,0,1,229.2302858515933,-1312.3101659751037) translate(28.517345679012347 57.80555555555555)"/></g><path d="M712.38-1023.73l2.15.44 2.9 1 3.16 1.6 3.4 2.35 3.6 3.22 3.5 4.13 3.17 4.9 2.5 5.3 1.7 5.37.92 5.13.2 3.9-.33 4.84-1.05 5.2-1.86 5.36-2.64 5.27-2.22 3.25" stroke="#1071e5" stroke-width="6" stroke-linejoin="round" fill="none"/><path d="M712.67-1026.8l-.4 6-2.87-.2v-6z" stroke="#1071e5" stroke-width=".05" fill="#1071e5"/><path d="M717.65-953.9l9.7-11.46 4.87 7.88z" stroke="#1071e5" stroke-width="6" fill="#1071e5"/><path d="M-755.82-603.14l794.1-395.64" stroke="#1071e5" stroke-width="6" fill="none"/><path d="M-754.4-600.5l-4.1 2.05v-6.7l1.42-.7z" stroke="#1071e5" stroke-width=".05" fill="#1071e5"/><path d="M53.72-1006.48l-10.7 10.5-4.14-8.28z" stroke="#1071e5" stroke-width="6" fill="#1071e5"/><g><use xlink:href="#T" transform="matrix(1,0,0,1,-660.2585339725566,-792.2806818964472) translate(0 17.77777777777778)"/><use xlink:href="#U" transform="matrix(1,0,0,1,-660.2585339725566,-792.2806818964472) translate(126.91358024691358 17.77777777777778)"/><use xlink:href="#V" transform="matrix(1,0,0,1,-660.2585339725566,-792.2806818964472) translate(0 44.44444444444444)"/><use xlink:href="#W" transform="matrix(1,0,0,1,-660.2585339725566,-792.2806818964472) translate(86.23456790123457 44.44444444444444)"/><use xlink:href="#X" transform="matrix(1,0,0,1,-660.2585339725566,-792.2806818964472) translate(152.77777777777777 44.44444444444444)"/><use xlink:href="#Y" transform="matrix(1,0,0,1,-660.2585339725566,-792.2806818964472) translate(0 71.11111111111111)"/><use xlink:href="#Z" transform="matrix(1,0,0,1,-660.2585339725566,-792.2806818964472) translate(50.55555555555556 71.11111111111111)"/></g><path d="M-762.08-1129.6l798.26 106.7" stroke="#1071e5" stroke-width="6" fill="none"/><path d="M-761.6-1132.57l-.8 5.95-2.65-.35v-6.06z" stroke="#1071e5" stroke-width=".05" fill="#1071e5"/><path d="M53.3-1020.62l-14.76 2.7 1.23-9.18z" stroke="#1071e5" stroke-width="6" fill="#1071e5"/><path d="M-755.5-331.04l719.14-8.56 66.48-3.82 17.7-1.8 7.17-1.04 3.58-.67 2.05-.48 1.28-.37.86-.27.6-.22.43-.18.3-.16.26-.13.2-.1.15-.1.14-.1.1-.07.1-.07.06-.07.06-.06.05-.05.06-.06.03-.05.03-.05.03-.04.02-.04.02-.04.02-.04.02-.03v-.03l.02-.03v-.04l.02-.03v-.06l.02-.02v-.18l-.02-.04v-.05l-.03-.04v-.03l-.02-.03-.02-.04v-.04l-.04-.05-.03-.04-.03-.04-.03-.05-.05-.04-.05-.06-.06-.06-.06-.07-.1-.07-.1-.1-.13-.08-.14-.1-.2-.13-.26-.15-.34-.17-.45-.2-.62-.24-.9-.32-1.4-.4-2.24-.58-4.02-.84-8.3-1.38-21.8-2.65-92.74-7.16-664.5-25.15" stroke="#1071e5" stroke-width="6" stroke-linejoin="round" fill="none"/><path d="M-755.4-328.04l-3.1.04v-6l3.04-.04z" stroke="#1071e5" stroke-width=".05" fill="#1071e5"/><path d="M-750.48-391l14.38-4.26-.24 9.27z" stroke="#1071e5" stroke-width="6" fill="#1071e5"/><g><use xlink:href="#aa" transform="matrix(1,0,0,1,-660.8343652735686,-328.40148500265656) translate(0 17.77777777777778)"/></g><g><use xlink:href="#ab" transform="matrix(1,0,0,1,-659.8103118215759,-414.21282337985036) translate(0 17.77777777777778)"/><use xlink:href="#ac" transform="matrix(1,0,0,1,-659.8103118215759,-414.21282337985036) translate(105.49382716049381 17.77777777777778)"/><use xlink:href="#ad" transform="matrix(1,0,0,1,-659.8103118215759,-414.21282337985036) translate(117.83950617283949 17.77777777777778)"/><use xlink:href="#ae" transform="matrix(1,0,0,1,-659.8103118215759,-414.21282337985036) translate(204.07407407407408 17.77777777777778)"/></g><path d="M811.1-961.58h240.43" stroke="#1071e5" stroke-width="6" fill="none"/><path d="M793.84-961.58l14.26-4.63v9.26zM1068.8-961.58l-14.27 4.64v-9.27z" stroke="#1071e5" stroke-width="6" fill="#1071e5"/><path d="M-665.33-1194a6 6 0 0 1 6-6h278a6 6 0 0 1 6 6v104.67a6 6 0 0 1-6 6h-278a6 6 0 0 1-6-6z" stroke="#000" stroke-opacity="0" fill="#fff" fill-opacity="0"/><g><use xlink:href="#af" transform="matrix(1,0,0,1,-660.3333333333334,-1195) translate(0 44.52777777777778)"/><use xlink:href="#ac" transform="matrix(1,0,0,1,-660.3333333333334,-1195) translate(56.666666666666664 44.52777777777778)"/><use xlink:href="#ag" transform="matrix(1,0,0,1,-660.3333333333334,-1195) translate(69.01234567901234 44.52777777777778)"/><use xlink:href="#ah" transform="matrix(1,0,0,1,-660.3333333333334,-1195) translate(154.07407407407405 44.52777777777778)"/><use xlink:href="#ai" transform="matrix(1,0,0,1,-660.3333333333334,-1195) translate(166.41975308641972 44.52777777777778)"/><use xlink:href="#aj" transform="matrix(1,0,0,1,-660.3333333333334,-1195) translate(236.72839506172835 44.52777777777778)"/><use xlink:href="#ak" transform="matrix(1,0,0,1,-660.3333333333334,-1195) translate(0 71.19444444444446)"/><use xlink:href="#ah" transform="matrix(1,0,0,1,-660.3333333333334,-1195) translate(81.23456790123456 71.19444444444446)"/><use xlink:href="#al" transform="matrix(1,0,0,1,-660.3333333333334,-1195) translate(93.58024691358024 71.19444444444446)"/><use xlink:href="#ah" transform="matrix(1,0,0,1,-660.3333333333334,-1195) translate(166.29629629629628 71.19444444444446)"/><use xlink:href="#am" transform="matrix(1,0,0,1,-660.3333333333334,-1195) translate(178.64197530864195 71.19444444444446)"/><use xlink:href="#an" transform="matrix(1,0,0,1,-660.3333333333334,-1195) translate(245.18518518518516 71.19444444444446)"/></g><path d="M712.4-935.94l2.66.06 5.6.35 5.54.58 5.5.82 5.48 1.04 5.48 1.3 5.48 1.53 5.5 1.8 5.55 2.05 5.6 2.35 5.64 2.67 5.74 3 5.83 3.36 5.94 3.77 6.05 4.2 6.17 4.7 6.33 5.24 6.48 5.84 6.65 6.52 6.82 7.26 6.98 8.1 7.16 9.03 7.3 10.08 7.44 11.2 7.53 12.46 7.58 13.8 7.53 15.2 7.4 16.64 7.16 18.07 6.76 19.4 6.2 20.57 5.5 21.44 4.67 21.97 3.73 22.08 2.76 21.8 1.77 21.1.85 20.12v18.9l-.73 17.56-1.35 16.16-1.87 14.78-2.27 13.45-2.6 12.2-2.83 11.1-3.03 10.02-3.16 9.1-3.27 8.25-3.34 7.5-3.4 6.85-3.43 6.25-3.46 5.7-3.48 5.25-3.5 4.8-3.5 4.43-3.5 4.08-3.55 3.77-3.54 3.48-3.58 3.22-3.6 2.98-3.63 2.76-3.68 2.57-3.72 2.36-3.78 2.18-3.85 2.02-3.92 1.85-4 1.68-4.12 1.53-4.22 1.37-4.35 1.22-3.13.73" stroke="#1071e5" stroke-width="6" stroke-linejoin="round" fill="none"/><path d="M712.54-938.93l-.12 6-3.02-.07v-6z" stroke="#1071e5" stroke-width=".05" fill="#1071e5"/><path d="M802.26-382.55l13.7-6.14 1 9.23z" stroke="#1071e5" stroke-width="6" fill="#1071e5"/><path d="M35.93-730.32h27.2v24.5h-27.2z" fill="#fff" fill-opacity=".5"/><defs><path fill="#3a414a" d="M136-208V0H84v-208H4v-40h212v40h-80" id="ao"/><path fill="#3a414a" d="M185-48c-13 30-37 53-82 52C43 2 14-33 14-96s30-98 90-98c62 0 83 45 84 108H66c0 31 8 55 39 56 18 0 30-7 34-22zm-45-69c5-46-57-63-70-21-2 6-4 13-4 21h74" id="ap"/><path fill="#3a414a" d="M220-157c-53 9-28 100-34 157h-49v-107c1-27-5-49-29-50C55-147 81-57 75 0H25l-1-190h47c2 12-1 28 3 38 10-53 101-56 108 0 13-22 24-43 59-42 82 1 51 116 57 194h-49v-107c-1-25-5-48-29-50" id="aq"/><path fill="#3a414a" d="M135-194c53 0 70 44 70 98 0 56-19 98-73 100-31 1-45-17-59-34 3 33 2 69 2 105H25l-1-265h48c2 10 0 23 3 31 11-24 29-35 60-35zM114-30c33 0 39-31 40-66 0-38-9-64-40-64-56 0-55 130 0 130" id="ar"/><path fill="#3a414a" d="M110-194c64 0 96 36 96 99 0 64-35 99-97 99-61 0-95-36-95-99 0-62 34-99 96-99zm-1 164c35 0 45-28 45-65 0-40-10-65-43-65-34 0-45 26-45 65 0 36 10 65 43 65" id="as"/><path fill="#3a414a" d="M135-150c-39-12-60 13-60 57V0H25l-1-190h47c2 13-1 29 3 40 6-28 27-53 61-41v41" id="at"/><path fill="#3a414a" d="M133-34C117-15 103 5 69 4 32 3 11-16 11-54c-1-60 55-63 116-61 1-26-3-47-28-47-18 1-26 9-28 27l-52-2c7-38 36-58 82-57s74 22 75 68l1 82c-1 14 12 18 25 15v27c-30 8-71 5-69-32zm-48 3c29 0 43-24 42-57-32 0-66-3-65 30 0 17 8 27 23 27" id="au"/><path fill="#3a414a" d="M25 0v-261h50V0H25" id="av"/><g id="a"><use transform="matrix(0.08641975308641973,0,0,0.08641975308641973,0,0)" xlink:href="#ao"/><use transform="matrix(0.08641975308641973,0,0,0.08641975308641973,16.592592592592588,0)" xlink:href="#ap"/><use transform="matrix(0.08641975308641973,0,0,0.08641975308641973,33.87654320987653,0)" xlink:href="#aq"/><use transform="matrix(0.08641975308641973,0,0,0.08641975308641973,61.53086419753085,0)" xlink:href="#ar"/><use transform="matrix(0.08641975308641973,0,0,0.08641975308641973,80.45679012345677,0)" xlink:href="#as"/><use transform="matrix(0.08641975308641973,0,0,0.08641975308641973,99.3827160493827,0)" xlink:href="#at"/><use transform="matrix(0.08641975308641973,0,0,0.08641975308641973,111.48148148148145,0)" xlink:href="#au"/><use transform="matrix(0.08641975308641973,0,0,0.08641975308641973,128.7654320987654,0)" xlink:href="#av"/></g><path fill="#3a414a" d="M67-125c0 53 21 87 73 88 37 1 54-22 65-47l45 17C233-25 199 4 140 4 58 4 20-42 15-125 8-235 124-281 211-232c18 10 29 29 36 50l-46 12c-8-25-30-41-62-41-52 0-71 34-72 86" id="aw"/><path fill="#3a414a" d="M85 4C-2 5 27-109 22-190h50c7 57-23 150 33 157 60-5 35-97 40-157h50l1 190h-47c-2-12 1-28-3-38-12 25-28 42-61 42" id="ax"/><path fill="#3a414a" d="M137-138c1-29-70-34-71-4 15 46 118 7 119 86 1 83-164 76-172 9l43-7c4 19 20 25 44 25 33 8 57-30 24-41C81-84 22-81 20-136c-2-80 154-74 161-7" id="ay"/><path fill="#3a414a" d="M115-3C79 11 28 4 28-45v-112H4v-33h27l15-45h31v45h36v33H77v99c-1 23 16 31 38 25v30" id="az"/><g id="b"><use transform="matrix(0.08641975308641973,0,0,0.08641975308641973,0,0)" xlink:href="#aw"/><use transform="matrix(0.08641975308641973,0,0,0.08641975308641973,22.38271604938271,0)" xlink:href="#av"/><use transform="matrix(0.08641975308641973,0,0,0.08641975308641973,31.024691358024686,0)" xlink:href="#ax"/><use transform="matrix(0.08641975308641973,0,0,0.08641975308641973,49.950617283950606,0)" xlink:href="#ay"/><use transform="matrix(0.08641975308641973,0,0,0.08641975308641973,67.23456790123456,0)" xlink:href="#az"/><use transform="matrix(0.08641975308641973,0,0,0.08641975308641973,77.5185185185185,0)" xlink:href="#ap"/><use transform="matrix(0.08641975308641973,0,0,0.08641975308641973,94.80246913580245,0)" xlink:href="#at"/></g><path fill="#3a414a" d="M186 0v-106H76V0H24v-248h52v99h110v-99h50V0h-50" id="aA"/><path fill="#3a414a" d="M25-224v-37h50v37H25zM25 0v-190h50V0H25" id="aB"/><path fill="#3a414a" d="M123 10C108 53 80 86 19 72V37c35 8 53-11 59-39L3-190h52l48 148c12-52 28-100 44-148h51" id="aC"/><g id="c"><use transform="matrix(0.08641975308641973,0,0,0.08641975308641973,0,0)" xlink:href="#aA"/><use transform="matrix(0.08641975308641973,0,0,0.08641975308641973,22.38271604938271,0)" xlink:href="#aB"/><use transform="matrix(0.08641975308641973,0,0,0.08641975308641973,31.024691358024686,0)" xlink:href="#ay"/><use transform="matrix(0.08641975308641973,0,0,0.08641975308641973,48.30864197530863,0)" xlink:href="#az"/><use transform="matrix(0.08641975308641973,0,0,0.08641975308641973,58.59259259259258,0)" xlink:href="#as"/><use transform="matrix(0.08641975308641973,0,0,0.08641975308641973,77.5185185185185,0)" xlink:href="#at"/><use transform="matrix(0.08641975308641973,0,0,0.08641975308641973,89.61728395061726,0)" xlink:href="#aC"/></g><path fill="#3a414a" d="M24 0v-54h51V0H24" id="aD"/><use transform="matrix(0.08024691358024691,0,0,0.08024691358024691,0,0)" xlink:href="#aD" id="f"/><use transform="matrix(0.08024691358024691,0,0,0.08024691358024691,0,0)" xlink:href="#aD" id="g"/><use transform="matrix(0.08024691358024691,0,0,0.08024691358024691,0,0)" xlink:href="#aD" id="h"/><path fill="#3a414a" d="M266 0h-40l-56-210L115 0H75L2-248h35L96-30l15-64 43-154h32l59 218 59-218h35" id="aE"/><path fill="#3a414a" d="M100-194c62-1 85 37 85 99 1 63-27 99-86 99S16-35 15-95c0-66 28-99 85-99zM99-20c44 1 53-31 53-75 0-43-8-75-51-75s-53 32-53 75 10 74 51 75" id="aF"/><path fill="#3a414a" d="M114-163C36-179 61-72 57 0H25l-1-190h30c1 12-1 29 2 39 6-27 23-49 58-41v29" id="aG"/><path fill="#3a414a" d="M143 0L79-87 56-68V0H24v-261h32v163l83-92h37l-77 82L181 0h-38" id="aH"/><path fill="#3a414a" d="M101-234c-31-9-42 10-38 44h38v23H63V0H32v-167H5v-23h27c-7-52 17-82 69-68v24" id="aI"/><path fill="#3a414a" d="M24 0v-261h32V0H24" id="aJ"/><path fill="#3a414a" d="M206 0h-36l-40-164L89 0H53L-1-190h32L70-26l43-164h34l41 164 42-164h31" id="aK"/><g id="i"><use transform="matrix(0.049382716049382706,0,0,0.049382716049382706,0,0)" xlink:href="#aE"/><use transform="matrix(0.049382716049382706,0,0,0.049382716049382706,16.395061728395056,0)" xlink:href="#aF"/><use transform="matrix(0.049382716049382706,0,0,0.049382716049382706,26.2716049382716,0)" xlink:href="#aG"/><use transform="matrix(0.049382716049382706,0,0,0.049382716049382706,32.14814814814814,0)" xlink:href="#aH"/><use transform="matrix(0.049382716049382706,0,0,0.049382716049382706,41.037037037037024,0)" xlink:href="#aI"/><use transform="matrix(0.049382716049382706,0,0,0.049382716049382706,45.975308641975296,0)" xlink:href="#aJ"/><use transform="matrix(0.049382716049382706,0,0,0.049382716049382706,49.87654320987653,0)" xlink:href="#aF"/><use transform="matrix(0.049382716049382706,0,0,0.049382716049382706,59.753086419753075,0)" xlink:href="#aK"/></g><path fill="#3a414a" d="M30 0v-248h187v28H63v79h144v27H63v87h162V0H30" id="aL"/><path fill="#3a414a" d="M141 0L90-78 38 0H4l68-98-65-92h35l48 74 47-74h35l-64 92 68 98h-35" id="aM"/><path fill="#3a414a" d="M100-194c63 0 86 42 84 106H49c0 40 14 67 53 68 26 1 43-12 49-29l28 8c-11 28-37 45-77 45C44 4 14-33 15-96c1-61 26-98 85-98zm52 81c6-60-76-77-97-28-3 7-6 17-6 28h103" id="aN"/><path fill="#3a414a" d="M96-169c-40 0-48 33-48 73s9 75 48 75c24 0 41-14 43-38l32 2c-6 37-31 61-74 61-59 0-76-41-82-99-10-93 101-131 147-64 4 7 5 14 7 22l-32 3c-4-21-16-35-41-35" id="aO"/><path fill="#3a414a" d="M84 4C-5 8 30-112 23-190h32v120c0 31 7 50 39 49 72-2 45-101 50-169h31l1 190h-30c-1-10 1-25-2-33-11 22-28 36-60 37" id="aP"/><path fill="#3a414a" d="M59-47c-2 24 18 29 38 22v24C64 9 27 4 27-40v-127H5v-23h24l9-43h21v43h35v23H59v120" id="aQ"/><path fill="#3a414a" d="M24-231v-30h32v30H24zM24 0v-190h32V0H24" id="aR"/><path fill="#3a414a" d="M117-194c89-4 53 116 60 194h-32v-121c0-31-8-49-39-48C34-167 62-67 57 0H25l-1-190h30c1 10-1 24 2 32 11-22 29-35 61-36" id="aS"/><g id="j"><use transform="matrix(0.049382716049382706,0,0,0.049382716049382706,0,0)" xlink:href="#aL"/><use transform="matrix(0.049382716049382706,0,0,0.049382716049382706,11.85185185185185,0)" xlink:href="#aM"/><use transform="matrix(0.049382716049382706,0,0,0.049382716049382706,20.740740740740737,0)" xlink:href="#aN"/><use transform="matrix(0.049382716049382706,0,0,0.049382716049382706,30.617283950617278,0)" xlink:href="#aO"/><use transform="matrix(0.049382716049382706,0,0,0.049382716049382706,39.50617283950616,0)" xlink:href="#aP"/><use transform="matrix(0.049382716049382706,0,0,0.049382716049382706,49.38271604938271,0)" xlink:href="#aQ"/><use transform="matrix(0.049382716049382706,0,0,0.049382716049382706,54.32098765432098,0)" xlink:href="#aR"/><use transform="matrix(0.049382716049382706,0,0,0.049382716049382706,58.222222222222214,0)" xlink:href="#aF"/><use transform="matrix(0.049382716049382706,0,0,0.049382716049382706,68.09876543209876,0)" xlink:href="#aS"/></g><path fill="#3a414a" d="M169-182c-1-43-94-46-97-3 18 66 151 10 154 114 3 95-165 93-204 36-6-8-10-19-12-30l50-8c3 46 112 56 116 5-17-69-150-10-154-114-4-87 153-88 188-35 5 8 8 18 10 28" id="aT"/><path fill="#3a414a" d="M114-157C55-157 80-60 75 0H25v-261h50l-1 109c12-26 28-41 61-42 86-1 58 113 63 194h-50c-7-57 23-157-34-157" id="aU"/><path fill="#3a414a" d="M88-194c31-1 46 15 58 34l-1-101h50l1 261h-48c-2-10 0-23-3-31C134-8 116 4 84 4 32 4 16-41 15-95c0-56 19-97 73-99zm17 164c33 0 40-30 41-66 1-37-9-64-41-64s-38 30-39 65c0 43 13 65 39 65" id="aV"/><g id="k"><use transform="matrix(0.06172839506172839,0,0,0.06172839506172839,0,0)" xlink:href="#aT"/><use transform="matrix(0.06172839506172839,0,0,0.06172839506172839,14.814814814814813,0)" xlink:href="#aU"/><use transform="matrix(0.06172839506172839,0,0,0.06172839506172839,28.33333333333333,0)" xlink:href="#au"/><use transform="matrix(0.06172839506172839,0,0,0.06172839506172839,40.679012345679006,0)" xlink:href="#at"/><use transform="matrix(0.06172839506172839,0,0,0.06172839506172839,49.32098765432098,0)" xlink:href="#aV"/></g><path fill="#333" d="M266 0h-40l-56-210L115 0H75L2-248h35L96-30l15-64 43-154h32l59 218 59-218h35" id="aW"/><path fill="#333" d="M100-194c62-1 85 37 85 99 1 63-27 99-86 99S16-35 15-95c0-66 28-99 85-99zM99-20c44 1 53-31 53-75 0-43-8-75-51-75s-53 32-53 75 10 74 51 75" id="aX"/><path fill="#333" d="M114-163C36-179 61-72 57 0H25l-1-190h30c1 12-1 29 2 39 6-27 23-49 58-41v29" id="aY"/><path fill="#333" d="M143 0L79-87 56-68V0H24v-261h32v163l83-92h37l-77 82L181 0h-38" id="aZ"/><path fill="#333" d="M101-234c-31-9-42 10-38 44h38v23H63V0H32v-167H5v-23h27c-7-52 17-82 69-68v24" id="ba"/><path fill="#333" d="M24 0v-261h32V0H24" id="bb"/><path fill="#333" d="M206 0h-36l-40-164L89 0H53L-1-190h32L70-26l43-164h34l41 164 42-164h31" id="bc"/><g id="l"><use transform="matrix(0.049382716049382706,0,0,0.049382716049382706,0,0)" xlink:href="#aW"/><use transform="matrix(0.049382716049382706,0,0,0.049382716049382706,16.395061728395056,0)" xlink:href="#aX"/><use transform="matrix(0.049382716049382706,0,0,0.049382716049382706,26.2716049382716,0)" xlink:href="#aY"/><use transform="matrix(0.049382716049382706,0,0,0.049382716049382706,32.14814814814814,0)" xlink:href="#aZ"/><use transform="matrix(0.049382716049382706,0,0,0.049382716049382706,41.037037037037024,0)" xlink:href="#ba"/><use transform="matrix(0.049382716049382706,0,0,0.049382716049382706,45.975308641975296,0)" xlink:href="#bb"/><use transform="matrix(0.049382716049382706,0,0,0.049382716049382706,49.87654320987653,0)" xlink:href="#aX"/><use transform="matrix(0.049382716049382706,0,0,0.049382716049382706,59.753086419753075,0)" xlink:href="#bc"/></g><path fill="#333" d="M30 0v-248h187v28H63v79h144v27H63v87h162V0H30" id="bd"/><path fill="#333" d="M141 0L90-78 38 0H4l68-98-65-92h35l48 74 47-74h35l-64 92 68 98h-35" id="be"/><path fill="#333" d="M100-194c63 0 86 42 84 106H49c0 40 14 67 53 68 26 1 43-12 49-29l28 8c-11 28-37 45-77 45C44 4 14-33 15-96c1-61 26-98 85-98zm52 81c6-60-76-77-97-28-3 7-6 17-6 28h103" id="bf"/><path fill="#333" d="M96-169c-40 0-48 33-48 73s9 75 48 75c24 0 41-14 43-38l32 2c-6 37-31 61-74 61-59 0-76-41-82-99-10-93 101-131 147-64 4 7 5 14 7 22l-32 3c-4-21-16-35-41-35" id="bg"/><path fill="#333" d="M84 4C-5 8 30-112 23-190h32v120c0 31 7 50 39 49 72-2 45-101 50-169h31l1 190h-30c-1-10 1-25-2-33-11 22-28 36-60 37" id="bh"/><path fill="#333" d="M59-47c-2 24 18 29 38 22v24C64 9 27 4 27-40v-127H5v-23h24l9-43h21v43h35v23H59v120" id="bi"/><path fill="#333" d="M24-231v-30h32v30H24zM24 0v-190h32V0H24" id="bj"/><path fill="#333" d="M117-194c89-4 53 116 60 194h-32v-121c0-31-8-49-39-48C34-167 62-67 57 0H25l-1-190h30c1 10-1 24 2 32 11-22 29-35 61-36" id="bk"/><g id="m"><use transform="matrix(0.049382716049382706,0,0,0.049382716049382706,0,0)" xlink:href="#bd"/><use transform="matrix(0.049382716049382706,0,0,0.049382716049382706,11.85185185185185,0)" xlink:href="#be"/><use transform="matrix(0.049382716049382706,0,0,0.049382716049382706,20.740740740740737,0)" xlink:href="#bf"/><use transform="matrix(0.049382716049382706,0,0,0.049382716049382706,30.617283950617278,0)" xlink:href="#bg"/><use transform="matrix(0.049382716049382706,0,0,0.049382716049382706,39.50617283950616,0)" xlink:href="#bh"/><use transform="matrix(0.049382716049382706,0,0,0.049382716049382706,49.38271604938271,0)" xlink:href="#bi"/><use transform="matrix(0.049382716049382706,0,0,0.049382716049382706,54.32098765432098,0)" xlink:href="#bj"/><use transform="matrix(0.049382716049382706,0,0,0.049382716049382706,58.222222222222214,0)" xlink:href="#aX"/><use transform="matrix(0.049382716049382706,0,0,0.049382716049382706,68.09876543209876,0)" xlink:href="#bk"/></g><g id="n"><use transform="matrix(0.06172839506172839,0,0,0.06172839506172839,0,0)" xlink:href="#aD"/><use transform="matrix(0.06172839506172839,0,0,0.06172839506172839,6.172839506172839,0)" xlink:href="#aD"/><use transform="matrix(0.06172839506172839,0,0,0.06172839506172839,12.345679012345679,0)" xlink:href="#aD"/></g><use transform="matrix(0.061728395061728364,0,0,0.061728395061728364,0,0)" xlink:href="#aD" id="o"/><use transform="matrix(0.061728395061728364,0,0,0.061728395061728364,0,0)" xlink:href="#aD" id="p"/><use transform="matrix(0.061728395061728364,0,0,0.061728395061728364,0,0)" xlink:href="#aD" id="q"/><path fill="#3a414a" d="M76-208v77h127v40H76V0H24v-248h183v40H76" id="bl"/><path fill="#3a414a" d="M135-194c87-1 58 113 63 194h-50c-7-57 23-157-34-157-59 0-34 97-39 157H25l-1-190h47c2 12-1 28 3 38 12-26 28-41 61-42" id="bm"/><g id="r"><use transform="matrix(0.08641975308641973,0,0,0.08641975308641973,0,0)" xlink:href="#bl"/><use transform="matrix(0.08641975308641973,0,0,0.08641975308641973,18.92592592592592,0)" xlink:href="#at"/><use transform="matrix(0.08641975308641973,0,0,0.08641975308641973,31.024691358024686,0)" xlink:href="#as"/><use transform="matrix(0.08641975308641973,0,0,0.08641975308641973,49.950617283950606,0)" xlink:href="#bm"/><use transform="matrix(0.08641975308641973,0,0,0.08641975308641973,68.87654320987653,0)" xlink:href="#az"/><use transform="matrix(0.08641975308641973,0,0,0.08641975308641973,79.16049382716048,0)" xlink:href="#ap"/><use transform="matrix(0.08641975308641973,0,0,0.08641975308641973,96.44444444444443,0)" xlink:href="#bm"/><use transform="matrix(0.08641975308641973,0,0,0.08641975308641973,115.37037037037035,0)" xlink:href="#aV"/></g><path fill="#3a414a" d="M230 0l2-204L168 0h-37L68-204 70 0H24v-248h70l56 185 57-185h69V0h-46" id="bn"/><path fill="#3a414a" d="M190-63c-7 42-38 67-86 67-59 0-84-38-90-98-12-110 154-137 174-36l-49 2c-2-19-15-32-35-32-30 0-35 28-38 64-6 74 65 87 74 30" id="bo"/><path fill="#3a414a" d="M195-6C206 82 75 100 31 46c-4-6-6-13-8-21l49-6c3 16 16 24 34 25 40 0 42-37 40-79-11 22-30 35-61 35-53 0-70-43-70-97 0-56 18-96 73-97 30 0 46 14 59 34l2-30h47zm-90-29c32 0 41-27 41-63 0-35-9-62-40-62-32 0-39 29-40 63 0 36 9 62 39 62" id="bp"/><g id="s"><use transform="matrix(0.08641975308641973,0,0,0.08641975308641973,0,0)" xlink:href="#bn"/><use transform="matrix(0.08641975308641973,0,0,0.08641975308641973,25.8395061728395,0)" xlink:href="#au"/><use transform="matrix(0.08641975308641973,0,0,0.08641975308641973,43.12345679012344,0)" xlink:href="#az"/><use transform="matrix(0.08641975308641973,0,0,0.08641975308641973,53.40740740740738,0)" xlink:href="#bo"/><use transform="matrix(0.08641975308641973,0,0,0.08641975308641973,70.69135802469134,0)" xlink:href="#aU"/><use transform="matrix(0.08641975308641973,0,0,0.08641975308641973,89.61728395061726,0)" xlink:href="#aB"/><use transform="matrix(0.08641975308641973,0,0,0.08641975308641973,98.25925925925924,0)" xlink:href="#bm"/><use transform="matrix(0.08641975308641973,0,0,0.08641975308641973,117.18518518518516,0)" xlink:href="#bp"/></g><path fill="#3a414a" d="M147 0L96-86 75-71V0H25v-261h50v150l67-79h53l-66 74L201 0h-54" id="bq"/><g id="t"><use transform="matrix(0.06172839506172839,0,0,0.06172839506172839,0,0)" xlink:href="#ao"/><use transform="matrix(0.06172839506172839,0,0,0.06172839506172839,11.851851851851851,0)" xlink:href="#au"/><use transform="matrix(0.06172839506172839,0,0,0.06172839506172839,24.19753086419753,0)" xlink:href="#ay"/><use transform="matrix(0.06172839506172839,0,0,0.06172839506172839,36.54320987654321,0)" xlink:href="#bq"/></g><path fill="#3a414a" d="M140-251c80 0 125 45 125 126 0 70-33 111-92 124 6 28 34 38 68 31l-1 36C177 83 129 55 120 2 51-6 15-50 15-125c0-81 44-126 125-126zm-1 214c52 0 73-35 73-88 0-50-21-86-72-86-52 0-73 35-73 86s22 88 72 88" id="br"/><g id="u"><use transform="matrix(0.06172839506172839,0,0,0.06172839506172839,0,0)" xlink:href="#br"/><use transform="matrix(0.06172839506172839,0,0,0.06172839506172839,17.28395061728395,0)" xlink:href="#ax"/><use transform="matrix(0.06172839506172839,0,0,0.06172839506172839,30.80246913580247,0)" xlink:href="#ap"/><use transform="matrix(0.06172839506172839,0,0,0.06172839506172839,43.148148148148145,0)" xlink:href="#ax"/><use transform="matrix(0.06172839506172839,0,0,0.06172839506172839,56.666666666666664,0)" xlink:href="#ap"/></g><g id="v"><use transform="matrix(0.049382716049382706,0,0,0.049382716049382706,0,0)" xlink:href="#aE"/><use transform="matrix(0.049382716049382706,0,0,0.049382716049382706,16.395061728395056,0)" xlink:href="#aF"/><use transform="matrix(0.049382716049382706,0,0,0.049382716049382706,26.2716049382716,0)" xlink:href="#aG"/><use transform="matrix(0.049382716049382706,0,0,0.049382716049382706,32.14814814814814,0)" xlink:href="#aH"/><use transform="matrix(0.049382716049382706,0,0,0.049382716049382706,41.037037037037024,0)" xlink:href="#aI"/><use transform="matrix(0.049382716049382706,0,0,0.049382716049382706,45.975308641975296,0)" xlink:href="#aJ"/><use transform="matrix(0.049382716049382706,0,0,0.049382716049382706,49.87654320987653,0)" xlink:href="#aF"/><use transform="matrix(0.049382716049382706,0,0,0.049382716049382706,59.753086419753075,0)" xlink:href="#aK"/></g><g id="w"><use transform="matrix(0.049382716049382706,0,0,0.049382716049382706,0,0)" xlink:href="#aL"/><use transform="matrix(0.049382716049382706,0,0,0.049382716049382706,11.85185185185185,0)" xlink:href="#aM"/><use transform="matrix(0.049382716049382706,0,0,0.049382716049382706,20.740740740740737,0)" xlink:href="#aN"/><use transform="matrix(0.049382716049382706,0,0,0.049382716049382706,30.617283950617278,0)" xlink:href="#aO"/><use transform="matrix(0.049382716049382706,0,0,0.049382716049382706,39.50617283950616,0)" xlink:href="#aP"/><use transform="matrix(0.049382716049382706,0,0,0.049382716049382706,49.38271604938271,0)" xlink:href="#aQ"/><use transform="matrix(0.049382716049382706,0,0,0.049382716049382706,54.32098765432098,0)" xlink:href="#aR"/><use transform="matrix(0.049382716049382706,0,0,0.049382716049382706,58.222222222222214,0)" xlink:href="#aF"/><use transform="matrix(0.049382716049382706,0,0,0.049382716049382706,68.09876543209876,0)" xlink:href="#aS"/></g><path fill="#3a414a" d="M197 0v-115H63V0H30v-248h33v105h134v-105h34V0h-34" id="bs"/><path fill="#3a414a" d="M135-143c-3-34-86-38-87 0 15 53 115 12 119 90S17 21 10-45l28-5c4 36 97 45 98 0-10-56-113-15-118-90-4-57 82-63 122-42 12 7 21 19 24 35" id="bt"/><path fill="#3a414a" d="M179-190L93 31C79 59 56 82 12 73V49c39 6 53-20 64-50L1-190h34L92-34l54-156h33" id="bu"/><g id="x"><use transform="matrix(0.049382716049382706,0,0,0.049382716049382706,0,0)" xlink:href="#bs"/><use transform="matrix(0.049382716049382706,0,0,0.049382716049382706,12.790123456790122,0)" xlink:href="#aR"/><use transform="matrix(0.049382716049382706,0,0,0.049382716049382706,16.691358024691354,0)" xlink:href="#bt"/><use transform="matrix(0.049382716049382706,0,0,0.049382716049382706,25.580246913580243,0)" xlink:href="#aQ"/><use transform="matrix(0.049382716049382706,0,0,0.049382716049382706,30.518518518518512,0)" xlink:href="#aF"/><use transform="matrix(0.049382716049382706,0,0,0.049382716049382706,40.39506172839505,0)" xlink:href="#aG"/><use transform="matrix(0.049382716049382706,0,0,0.049382716049382706,46.271604938271594,0)" xlink:href="#bu"/></g><path fill="#3a414a" d="M108 0H70L1-190h34L89-25l56-165h34" id="bv"/><g id="y"><use transform="matrix(0.049382716049382706,0,0,0.049382716049382706,0,0)" xlink:href="#aL"/><use transform="matrix(0.049382716049382706,0,0,0.049382716049382706,11.85185185185185,0)" xlink:href="#bv"/><use transform="matrix(0.049382716049382706,0,0,0.049382716049382706,20.740740740740737,0)" xlink:href="#aN"/><use transform="matrix(0.049382716049382706,0,0,0.049382716049382706,30.617283950617278,0)" xlink:href="#aS"/><use transform="matrix(0.049382716049382706,0,0,0.049382716049382706,40.49382716049382,0)" xlink:href="#aQ"/><use transform="matrix(0.049382716049382706,0,0,0.049382716049382706,45.432098765432094,0)" xlink:href="#bt"/></g><path fill="#3a414a" d="M240 0l2-218c-23 76-54 145-80 218h-23L58-218 59 0H30v-248h44l77 211c21-75 51-140 76-211h43V0h-30" id="bw"/><path fill="#3a414a" d="M141-36C126-15 110 5 73 4 37 3 15-17 15-53c-1-64 63-63 125-63 3-35-9-54-41-54-24 1-41 7-42 31l-33-3c5-37 33-52 76-52 45 0 72 20 72 64v82c-1 20 7 32 28 27v20c-31 9-61-2-59-35zM48-53c0 20 12 33 32 33 41-3 63-29 60-74-43 2-92-5-92 41" id="bx"/><path fill="#3a414a" d="M115-194c53 0 69 39 70 98 0 66-23 100-70 100C84 3 66-7 56-30L54 0H23l1-261h32v101c10-23 28-34 59-34zm-8 174c40 0 45-34 45-75 0-40-5-75-45-74-42 0-51 32-51 76 0 43 10 73 51 73" id="by"/><g id="z"><use transform="matrix(0.049382716049382706,0,0,0.049382716049382706,0,0)" xlink:href="#bw"/><use transform="matrix(0.049382716049382706,0,0,0.049382716049382706,14.765432098765428,0)" xlink:href="#aP"/><use transform="matrix(0.049382716049382706,0,0,0.049382716049382706,24.641975308641968,0)" xlink:href="#aQ"/><use transform="matrix(0.049382716049382706,0,0,0.049382716049382706,29.58024691358024,0)" xlink:href="#bx"/><use transform="matrix(0.049382716049382706,0,0,0.049382716049382706,39.456790123456784,0)" xlink:href="#by"/><use transform="matrix(0.049382716049382706,0,0,0.049382716049382706,49.33333333333333,0)" xlink:href="#aJ"/><use transform="matrix(0.049382716049382706,0,0,0.049382716049382706,53.234567901234556,0)" xlink:href="#aN"/></g><path fill="#3a414a" d="M185-189c-5-48-123-54-124 2 14 75 158 14 163 119 3 78-121 87-175 55-17-10-28-26-33-46l33-7c5 56 141 63 141-1 0-78-155-14-162-118-5-82 145-84 179-34 5 7 8 16 11 25" id="bz"/><g id="A"><use transform="matrix(0.049382716049382706,0,0,0.049382716049382706,0,0)" xlink:href="#bz"/><use transform="matrix(0.049382716049382706,0,0,0.049382716049382706,11.85185185185185,0)" xlink:href="#aQ"/><use transform="matrix(0.049382716049382706,0,0,0.049382716049382706,16.79012345679012,0)" xlink:href="#bx"/><use transform="matrix(0.049382716049382706,0,0,0.049382716049382706,26.66666666666666,0)" xlink:href="#aQ"/><use transform="matrix(0.049382716049382706,0,0,0.049382716049382706,31.604938271604933,0)" xlink:href="#aN"/></g><path fill="#3a414a" d="M127-220V0H93v-220H8v-28h204v28h-85" id="bA"/><g id="B"><use transform="matrix(0.049382716049382706,0,0,0.049382716049382706,0,0)" xlink:href="#bA"/><use transform="matrix(0.049382716049382706,0,0,0.049382716049382706,10.172839506172838,0)" xlink:href="#aG"/><use transform="matrix(0.049382716049382706,0,0,0.049382716049382706,16.04938271604938,0)" xlink:href="#bx"/><use transform="matrix(0.049382716049382706,0,0,0.049382716049382706,25.92592592592592,0)" xlink:href="#aS"/><use transform="matrix(0.049382716049382706,0,0,0.049382716049382706,35.80246913580246,0)" xlink:href="#bt"/><use transform="matrix(0.049382716049382706,0,0,0.049382716049382706,44.69135802469135,0)" xlink:href="#aI"/><use transform="matrix(0.049382716049382706,0,0,0.049382716049382706,49.62962962962962,0)" xlink:href="#aN"/><use transform="matrix(0.049382716049382706,0,0,0.049382716049382706,59.50617283950616,0)" xlink:href="#aG"/></g><g id="C"><use transform="matrix(0.049382716049382706,0,0,0.049382716049382706,0,0)" xlink:href="#bA"/><use transform="matrix(0.049382716049382706,0,0,0.049382716049382706,8.839506172839505,0)" xlink:href="#bx"/><use transform="matrix(0.049382716049382706,0,0,0.049382716049382706,18.716049382716044,0)" xlink:href="#bt"/><use transform="matrix(0.049382716049382706,0,0,0.049382716049382706,27.604938271604926,0)" xlink:href="#aH"/><use transform="matrix(0.049382716049382706,0,0,0.049382716049382706,36.493827160493815,0)" xlink:href="#bt"/></g><path fill="#3a414a" d="M210-169c-67 3-38 105-44 169h-31v-121c0-29-5-50-35-48C34-165 62-65 56 0H25l-1-190h30c1 10-1 24 2 32 10-44 99-50 107 0 11-21 27-35 58-36 85-2 47 119 55 194h-31v-121c0-29-5-49-35-48" id="bB"/><g id="D"><use transform="matrix(0.049382716049382706,0,0,0.049382716049382706,0,0)" xlink:href="#bA"/><use transform="matrix(0.049382716049382706,0,0,0.049382716049382706,10.172839506172838,0)" xlink:href="#aR"/><use transform="matrix(0.049382716049382706,0,0,0.049382716049382706,14.07407407407407,0)" xlink:href="#bB"/><use transform="matrix(0.049382716049382706,0,0,0.049382716049382706,28.8395061728395,0)" xlink:href="#aN"/><use transform="matrix(0.049382716049382706,0,0,0.049382716049382706,38.71604938271604,0)" xlink:href="#aG"/></g><path fill="#3a414a" d="M205 0l-28-72H64L36 0H1l101-248h38L239 0h-34zm-38-99l-47-123c-12 45-31 82-46 123h93" id="bC"/><g id="E"><use transform="matrix(0.049382716049382706,0,0,0.049382716049382706,0,0)" xlink:href="#bC"/><use transform="matrix(0.049382716049382706,0,0,0.049382716049382706,11.85185185185185,0)" xlink:href="#aO"/><use transform="matrix(0.049382716049382706,0,0,0.049382716049382706,20.740740740740737,0)" xlink:href="#aQ"/><use transform="matrix(0.049382716049382706,0,0,0.049382716049382706,25.679012345679006,0)" xlink:href="#aR"/><use transform="matrix(0.049382716049382706,0,0,0.049382716049382706,29.58024691358024,0)" xlink:href="#bv"/><use transform="matrix(0.049382716049382706,0,0,0.049382716049382706,38.469135802469125,0)" xlink:href="#aR"/><use transform="matrix(0.049382716049382706,0,0,0.049382716049382706,42.37037037037036,0)" xlink:href="#aQ"/><use transform="matrix(0.049382716049382706,0,0,0.049382716049382706,47.30864197530863,0)" xlink:href="#bu"/></g><path fill="#3a414a" d="M24-248c93 1 206-16 204 79-1 75-69 88-152 82V0H24v-248zm52 121c47 0 100 7 100-41 0-47-54-39-100-39v80" id="bD"/><g id="F"><use transform="matrix(0.08641975308641973,0,0,0.08641975308641973,0,0)" xlink:href="#bD"/><use transform="matrix(0.08641975308641973,0,0,0.08641975308641973,20.740740740740737,0)" xlink:href="#ap"/><use transform="matrix(0.08641975308641973,0,0,0.08641975308641973,38.02469135802468,0)" xlink:href="#at"/><use transform="matrix(0.08641975308641973,0,0,0.08641975308641973,50.12345679012345,0)" xlink:href="#ay"/><use transform="matrix(0.08641975308641973,0,0,0.08641975308641973,67.40740740740739,0)" xlink:href="#aB"/><use transform="matrix(0.08641975308641973,0,0,0.08641975308641973,76.04938271604937,0)" xlink:href="#ay"/><use transform="matrix(0.08641975308641973,0,0,0.08641975308641973,93.33333333333331,0)" xlink:href="#az"/><use transform="matrix(0.08641975308641973,0,0,0.08641975308641973,103.61728395061726,0)" xlink:href="#ap"/><use transform="matrix(0.08641975308641973,0,0,0.08641975308641973,120.90123456790121,0)" xlink:href="#bm"/><use transform="matrix(0.08641975308641973,0,0,0.08641975308641973,139.82716049382714,0)" xlink:href="#bo"/><use transform="matrix(0.08641975308641973,0,0,0.08641975308641973,157.1111111111111,0)" xlink:href="#ap"/></g><g id="G"><use transform="matrix(0.049382716049382706,0,0,0.049382716049382706,0,0)" xlink:href="#bA"/><use transform="matrix(0.049382716049382706,0,0,0.049382716049382706,10.172839506172838,0)" xlink:href="#aG"/><use transform="matrix(0.049382716049382706,0,0,0.049382716049382706,16.04938271604938,0)" xlink:href="#bx"/><use transform="matrix(0.049382716049382706,0,0,0.049382716049382706,25.92592592592592,0)" xlink:href="#aS"/><use transform="matrix(0.049382716049382706,0,0,0.049382716049382706,35.80246913580246,0)" xlink:href="#bt"/><use transform="matrix(0.049382716049382706,0,0,0.049382716049382706,44.69135802469135,0)" xlink:href="#bx"/><use transform="matrix(0.049382716049382706,0,0,0.049382716049382706,54.56790123456788,0)" xlink:href="#aO"/><use transform="matrix(0.049382716049382706,0,0,0.049382716049382706,63.45679012345677,0)" xlink:href="#aQ"/><use transform="matrix(0.049382716049382706,0,0,0.049382716049382706,68.39506172839504,0)" xlink:href="#aR"/><use transform="matrix(0.049382716049382706,0,0,0.049382716049382706,72.29629629629626,0)" xlink:href="#aF"/><use transform="matrix(0.049382716049382706,0,0,0.049382716049382706,82.1728395061728,0)" xlink:href="#aS"/><use transform="matrix(0.049382716049382706,0,0,0.049382716049382706,92.04938271604935,0)" xlink:href="#bx"/><use transform="matrix(0.049382716049382706,0,0,0.049382716049382706,101.92592592592591,0)" xlink:href="#aJ"/></g><path fill="#3a414a" d="M115-194c55 1 70 41 70 98S169 2 115 4C84 4 66-9 55-30l1 105H24l-1-265h31l2 30c10-21 28-34 59-34zm-8 174c40 0 45-34 45-75s-6-73-45-74c-42 0-51 32-51 76 0 43 10 73 51 73" id="bE"/><path fill="#3a414a" d="M85-194c31 0 48 13 60 33l-1-100h32l1 261h-30c-2-10 0-23-3-31C134-8 116 4 85 4 32 4 16-35 15-94c0-66 23-100 70-100zm9 24c-40 0-46 34-46 75 0 40 6 74 45 74 42 0 51-32 51-76 0-42-9-74-50-73" id="bF"/><g id="H"><use transform="matrix(0.049382716049382706,0,0,0.049382716049382706,0,0)" xlink:href="#aP"/><use transform="matrix(0.049382716049382706,0,0,0.049382716049382706,9.87654320987654,0)" xlink:href="#bE"/><use transform="matrix(0.049382716049382706,0,0,0.049382716049382706,19.75308641975308,0)" xlink:href="#bF"/><use transform="matrix(0.049382716049382706,0,0,0.049382716049382706,29.629629629629623,0)" xlink:href="#bx"/><use transform="matrix(0.049382716049382706,0,0,0.049382716049382706,39.50617283950616,0)" xlink:href="#aQ"/><use transform="matrix(0.049382716049382706,0,0,0.049382716049382706,44.444444444444436,0)" xlink:href="#aN"/><use transform="matrix(0.049382716049382706,0,0,0.049382716049382706,54.32098765432098,0)" xlink:href="#bt"/></g><path fill="#3a414a" d="M238-95c0 69-44 99-111 99C63 4 22-25 22-93v-155h51v151c-1 38 19 59 55 60 90 1 49-130 58-211h52v153" id="bG"/><path fill="#3a414a" d="M14-72v-43h91v43H14" id="bH"/><g id="I"><use transform="matrix(0.08641975308641973,0,0,0.08641975308641973,0,0)" xlink:href="#bG"/><use transform="matrix(0.08641975308641973,0,0,0.08641975308641973,22.38271604938271,0)" xlink:href="#ay"/><use transform="matrix(0.08641975308641973,0,0,0.08641975308641973,39.66666666666666,0)" xlink:href="#ap"/><use transform="matrix(0.08641975308641973,0,0,0.08641975308641973,56.950617283950606,0)" xlink:href="#at"/><use transform="matrix(0.08641975308641973,0,0,0.08641975308641973,69.04938271604937,0)" xlink:href="#bH"/><use transform="matrix(0.08641975308641973,0,0,0.08641975308641973,79.33333333333331,0)" xlink:href="#aU"/><use transform="matrix(0.08641975308641973,0,0,0.08641975308641973,98.25925925925924,0)" xlink:href="#as"/><use transform="matrix(0.08641975308641973,0,0,0.08641975308641973,117.18518518518516,0)" xlink:href="#ay"/><use transform="matrix(0.08641975308641973,0,0,0.08641975308641973,134.4691358024691,0)" xlink:href="#az"/><use transform="matrix(0.08641975308641973,0,0,0.08641975308641973,144.75308641975306,0)" xlink:href="#ap"/><use transform="matrix(0.08641975308641973,0,0,0.08641975308641973,162.037037037037,0)" xlink:href="#aV"/></g><g id="J"><use transform="matrix(0.08641975308641973,0,0,0.08641975308641973,0,0)" xlink:href="#ar"/><use transform="matrix(0.08641975308641973,0,0,0.08641975308641973,18.92592592592592,0)" xlink:href="#at"/><use transform="matrix(0.08641975308641973,0,0,0.08641975308641973,31.024691358024686,0)" xlink:href="#as"/><use transform="matrix(0.08641975308641973,0,0,0.08641975308641973,49.950617283950606,0)" xlink:href="#bo"/><use transform="matrix(0.08641975308641973,0,0,0.08641975308641973,67.23456790123456,0)" xlink:href="#ap"/><use transform="matrix(0.08641975308641973,0,0,0.08641975308641973,84.5185185185185,0)" xlink:href="#ay"/><use transform="matrix(0.08641975308641973,0,0,0.08641975308641973,101.80246913580245,0)" xlink:href="#ay"/><use transform="matrix(0.08641975308641973,0,0,0.08641975308641973,119.08641975308639,0)" xlink:href="#ap"/><use transform="matrix(0.08641975308641973,0,0,0.08641975308641973,136.37037037037035,0)" xlink:href="#ay"/></g><g id="K"><use transform="matrix(0.08641975308641973,0,0,0.08641975308641973,0,0)" xlink:href="#bG"/><use transform="matrix(0.08641975308641973,0,0,0.08641975308641973,22.38271604938271,0)" xlink:href="#ay"/><use transform="matrix(0.08641975308641973,0,0,0.08641975308641973,39.66666666666666,0)" xlink:href="#ap"/><use transform="matrix(0.08641975308641973,0,0,0.08641975308641973,56.950617283950606,0)" xlink:href="#at"/></g><path fill="#3a414a" d="M199 0l-22-63H83L61 0H9l90-248h61L250 0h-51zm-33-102l-36-108c-10 38-24 72-36 108h72" id="bI"/><g id="L"><use transform="matrix(0.08641975308641973,0,0,0.08641975308641973,0,0)" xlink:href="#bI"/><use transform="matrix(0.08641975308641973,0,0,0.08641975308641973,22.38271604938271,0)" xlink:href="#ar"/><use transform="matrix(0.08641975308641973,0,0,0.08641975308641973,41.30864197530863,0)" xlink:href="#ar"/><use transform="matrix(0.08641975308641973,0,0,0.08641975308641973,60.234567901234556,0)" xlink:href="#av"/><use transform="matrix(0.08641975308641973,0,0,0.08641975308641973,68.87654320987653,0)" xlink:href="#aB"/><use transform="matrix(0.08641975308641973,0,0,0.08641975308641973,77.5185185185185,0)" xlink:href="#bo"/><use transform="matrix(0.08641975308641973,0,0,0.08641975308641973,94.80246913580245,0)" xlink:href="#au"/><use transform="matrix(0.08641975308641973,0,0,0.08641975308641973,112.08641975308639,0)" xlink:href="#az"/><use transform="matrix(0.08641975308641973,0,0,0.08641975308641973,122.37037037037034,0)" xlink:href="#aB"/><use transform="matrix(0.08641975308641973,0,0,0.08641975308641973,131.01234567901233,0)" xlink:href="#as"/><use transform="matrix(0.08641975308641973,0,0,0.08641975308641973,149.93827160493825,0)" xlink:href="#bm"/></g><path fill="#3a414a" d="M24 0v-248h52v208h133V0H24" id="bJ"/><path fill="#3a414a" d="M24 0v-248h52V0H24" id="bK"/><path fill="#3a414a" d="M76-54c-1 42 2 86-19 110H24C36 42 46 24 48 0H25v-54h51" id="bL"/><g id="N"><use transform="matrix(0.08641975308641973,0,0,0.08641975308641973,0,0)" xlink:href="#aw"/><use transform="matrix(0.08641975308641973,0,0,0.08641975308641973,22.38271604938271,0)" xlink:href="#bJ"/><use transform="matrix(0.08641975308641973,0,0,0.08641975308641973,41.30864197530863,0)" xlink:href="#bK"/><use transform="matrix(0.08641975308641973,0,0,0.08641975308641973,49.950617283950606,0)" xlink:href="#bL"/></g><path fill="#3a414a" d="M275 0h-61l-44-196L126 0H64L0-248h53L97-49l45-199h58l43 199 44-199h52" id="bM"/><path fill="#3a414a" d="M135-194c52 0 70 43 70 98 0 56-19 99-73 100-30 1-46-15-58-35L72 0H24l1-261h50v104c11-23 29-37 60-37zM114-30c31 0 40-27 40-66 0-37-7-63-39-63s-41 28-41 65c0 36 8 64 40 64" id="bN"/><g id="O"><use transform="matrix(0.08641975308641973,0,0,0.08641975308641973,0,0)" xlink:href="#bM"/><use transform="matrix(0.08641975308641973,0,0,0.08641975308641973,28.69135802469135,0)" xlink:href="#ap"/><use transform="matrix(0.08641975308641973,0,0,0.08641975308641973,45.975308641975296,0)" xlink:href="#bN"/></g><g id="P"><use transform="matrix(0.08641975308641973,0,0,0.08641975308641973,0,0)" xlink:href="#bG"/><use transform="matrix(0.08641975308641973,0,0,0.08641975308641973,22.38271604938271,0)" xlink:href="#bK"/></g><g id="Q"><use transform="matrix(0.08641975308641973,0,0,0.08641975308641973,0,0)" xlink:href="#bM"/><use transform="matrix(0.08641975308641973,0,0,0.08641975308641973,28.69135802469135,0)" xlink:href="#as"/><use transform="matrix(0.08641975308641973,0,0,0.08641975308641973,47.61728395061727,0)" xlink:href="#at"/><use transform="matrix(0.08641975308641973,0,0,0.08641975308641973,59.71604938271604,0)" xlink:href="#bq"/><use transform="matrix(0.08641975308641973,0,0,0.08641975308641973,76.99999999999999,0)" xlink:href="#ap"/><use transform="matrix(0.08641975308641973,0,0,0.08641975308641973,94.28395061728394,0)" xlink:href="#at"/></g><g id="R"><use transform="matrix(0.049382716049382706,0,0,0.049382716049382706,0,0)" xlink:href="#bA"/><use transform="matrix(0.049382716049382706,0,0,0.049382716049382706,8.839506172839505,0)" xlink:href="#bx"/><use transform="matrix(0.049382716049382706,0,0,0.049382716049382706,18.716049382716044,0)" xlink:href="#bt"/><use transform="matrix(0.049382716049382706,0,0,0.049382716049382706,27.604938271604926,0)" xlink:href="#aH"/></g><path fill="#3a414a" d="M140-251c81 0 123 46 123 126C263-53 228-8 163 1c7 30 30 48 69 40v23c-55 16-95-15-103-61C56-3 17-48 17-125c0-80 42-126 123-126zm0 227c63 0 89-41 89-101s-29-99-89-99c-61 0-89 39-89 99S79-25 140-24" id="bO"/><g id="S"><use transform="matrix(0.049382716049382706,0,0,0.049382716049382706,0,0)" xlink:href="#bO"/><use transform="matrix(0.049382716049382706,0,0,0.049382716049382706,13.827160493827158,0)" xlink:href="#aP"/><use transform="matrix(0.049382716049382706,0,0,0.049382716049382706,23.7037037037037,0)" xlink:href="#aN"/><use transform="matrix(0.049382716049382706,0,0,0.049382716049382706,33.58024691358024,0)" xlink:href="#aP"/><use transform="matrix(0.049382716049382706,0,0,0.049382716049382706,43.456790123456784,0)" xlink:href="#aN"/></g><path fill="#333" d="M67-125c0 53 21 87 73 88 37 1 54-22 65-47l45 17C233-25 199 4 140 4 58 4 20-42 15-125 8-235 124-281 211-232c18 10 29 29 36 50l-46 12c-8-25-30-41-62-41-52 0-71 34-72 86" id="bP"/><path fill="#333" d="M110-194c64 0 96 36 96 99 0 64-35 99-97 99-61 0-95-36-95-99 0-62 34-99 96-99zm-1 164c35 0 45-28 45-65 0-40-10-65-43-65-34 0-45 26-45 65 0 36 10 65 43 65" id="bQ"/><path fill="#333" d="M220-157c-53 9-28 100-34 157h-49v-107c1-27-5-49-29-50C55-147 81-57 75 0H25l-1-190h47c2 12-1 28 3 38 10-53 101-56 108 0 13-22 24-43 59-42 82 1 51 116 57 194h-49v-107c-1-25-5-48-29-50" id="bR"/><path fill="#333" d="M133-34C117-15 103 5 69 4 32 3 11-16 11-54c-1-60 55-63 116-61 1-26-3-47-28-47-18 1-26 9-28 27l-52-2c7-38 36-58 82-57s74 22 75 68l1 82c-1 14 12 18 25 15v27c-30 8-71 5-69-32zm-48 3c29 0 43-24 42-57-32 0-66-3-65 30 0 17 8 27 23 27" id="bS"/><path fill="#333" d="M135-194c87-1 58 113 63 194h-50c-7-57 23-157-34-157-59 0-34 97-39 157H25l-1-190h47c2 12-1 28 3 38 12-26 28-41 61-42" id="bT"/><path fill="#333" d="M88-194c31-1 46 15 58 34l-1-101h50l1 261h-48c-2-10 0-23-3-31C134-8 116 4 84 4 32 4 16-41 15-95c0-56 19-97 73-99zm17 164c33 0 40-30 41-66 1-37-9-64-41-64s-38 30-39 65c0 43 13 65 39 65" id="bU"/><path fill="#333" d="M137-138c1-29-70-34-71-4 15 46 118 7 119 86 1 83-164 76-172 9l43-7c4 19 20 25 44 25 33 8 57-30 24-41C81-84 22-81 20-136c-2-80 154-74 161-7" id="bV"/><g id="T"><use transform="matrix(0.06172839506172839,0,0,0.06172839506172839,0,0)" xlink:href="#bP"/><use transform="matrix(0.06172839506172839,0,0,0.06172839506172839,15.987654320987653,0)" xlink:href="#bQ"/><use transform="matrix(0.06172839506172839,0,0,0.06172839506172839,29.50617283950617,0)" xlink:href="#bR"/><use transform="matrix(0.06172839506172839,0,0,0.06172839506172839,49.25925925925925,0)" xlink:href="#bR"/><use transform="matrix(0.06172839506172839,0,0,0.06172839506172839,69.01234567901234,0)" xlink:href="#bS"/><use transform="matrix(0.06172839506172839,0,0,0.06172839506172839,81.35802469135803,0)" xlink:href="#bT"/><use transform="matrix(0.06172839506172839,0,0,0.06172839506172839,94.87654320987654,0)" xlink:href="#bU"/><use transform="matrix(0.06172839506172839,0,0,0.06172839506172839,108.39506172839506,0)" xlink:href="#bV"/></g><path fill="#333" d="M4 7l51-268h42L46 7H4" id="bW"/><use transform="matrix(0.06172839506172839,0,0,0.06172839506172839,0,0)" xlink:href="#bW" id="U"/><path fill="#333" d="M199 0l-22-63H83L61 0H9l90-248h61L250 0h-51zm-33-102l-36-108c-10 38-24 72-36 108h72" id="bX"/><path fill="#333" d="M190-63c-7 42-38 67-86 67-59 0-84-38-90-98-12-110 154-137 174-36l-49 2c-2-19-15-32-35-32-30 0-35 28-38 64-6 74 65 87 74 30" id="bY"/><path fill="#333" d="M115-3C79 11 28 4 28-45v-112H4v-33h27l15-45h31v45h36v33H77v99c-1 23 16 31 38 25v30" id="bZ"/><path fill="#333" d="M25-224v-37h50v37H25zM25 0v-190h50V0H25" id="ca"/><path fill="#333" d="M128 0H69L1-190h53L99-40l48-150h52" id="cb"/><path fill="#333" d="M123 10C108 53 80 86 19 72V37c35 8 53-11 59-39L3-190h52l48 148c12-52 28-100 44-148h51" id="cc"/><g id="V"><use transform="matrix(0.06172839506172839,0,0,0.06172839506172839,0,0)" xlink:href="#bX"/><use transform="matrix(0.06172839506172839,0,0,0.06172839506172839,15.987654320987653,0)" xlink:href="#bY"/><use transform="matrix(0.06172839506172839,0,0,0.06172839506172839,28.333333333333332,0)" xlink:href="#bZ"/><use transform="matrix(0.06172839506172839,0,0,0.06172839506172839,35.67901234567901,0)" xlink:href="#ca"/><use transform="matrix(0.06172839506172839,0,0,0.06172839506172839,41.851851851851855,0)" xlink:href="#cb"/><use transform="matrix(0.06172839506172839,0,0,0.06172839506172839,54.19753086419753,0)" xlink:href="#ca"/><use transform="matrix(0.06172839506172839,0,0,0.06172839506172839,60.370370370370374,0)" xlink:href="#bZ"/><use transform="matrix(0.06172839506172839,0,0,0.06172839506172839,67.71604938271605,0)" xlink:href="#cc"/></g><path fill="#333" d="M135-150c-39-12-60 13-60 57V0H25l-1-190h47c2 13-1 29 3 40 6-28 27-53 61-41v41" id="cd"/><path fill="#333" d="M185-48c-13 30-37 53-82 52C43 2 14-33 14-96s30-98 90-98c62 0 83 45 84 108H66c0 31 8 55 39 56 18 0 30-7 34-22zm-45-69c5-46-57-63-70-21-2 6-4 13-4 21h74" id="ce"/><path fill="#333" d="M85 4C-2 5 27-109 22-190h50c7 57-23 150 33 157 60-5 35-97 40-157h50l1 190h-47c-2-12 1-28-3-38-12 25-28 42-61 42" id="cf"/><path fill="#333" d="M25 0v-261h50V0H25" id="cg"/><g id="W"><use transform="matrix(0.06172839506172839,0,0,0.06172839506172839,0,0)" xlink:href="#cd"/><use transform="matrix(0.06172839506172839,0,0,0.06172839506172839,8.641975308641975,0)" xlink:href="#ce"/><use transform="matrix(0.06172839506172839,0,0,0.06172839506172839,20.98765432098765,0)" xlink:href="#bV"/><use transform="matrix(0.06172839506172839,0,0,0.06172839506172839,33.33333333333333,0)" xlink:href="#cf"/><use transform="matrix(0.06172839506172839,0,0,0.06172839506172839,46.85185185185185,0)" xlink:href="#cg"/><use transform="matrix(0.06172839506172839,0,0,0.06172839506172839,53.02469135802469,0)" xlink:href="#bZ"/></g><use transform="matrix(0.06172839506172839,0,0,0.06172839506172839,0,0)" xlink:href="#bW" id="X"/><path fill="#333" d="M147 0L96-86 75-71V0H25v-261h50v150l67-79h53l-66 74L201 0h-54" id="ch"/><g id="Y"><use transform="matrix(0.06172839506172839,0,0,0.06172839506172839,0,0)" xlink:href="#bZ"/><use transform="matrix(0.06172839506172839,0,0,0.06172839506172839,7.345679012345679,0)" xlink:href="#bS"/><use transform="matrix(0.06172839506172839,0,0,0.06172839506172839,19.691358024691358,0)" xlink:href="#bV"/><use transform="matrix(0.06172839506172839,0,0,0.06172839506172839,32.03703703703704,0)" xlink:href="#ch"/></g><path fill="#333" d="M121-226c-27-7-43 5-38 36h38v33H83V0H34v-157H6v-33h28c-9-59 32-81 87-68v32" id="ci"/><g id="Z"><use transform="matrix(0.06172839506172839,0,0,0.06172839506172839,0,0)" xlink:href="#ci"/><use transform="matrix(0.06172839506172839,0,0,0.06172839506172839,7.345679012345679,0)" xlink:href="#bS"/><use transform="matrix(0.06172839506172839,0,0,0.06172839506172839,19.691358024691358,0)" xlink:href="#ca"/><use transform="matrix(0.06172839506172839,0,0,0.06172839506172839,25.864197530864196,0)" xlink:href="#cg"/><use transform="matrix(0.06172839506172839,0,0,0.06172839506172839,32.03703703703704,0)" xlink:href="#cf"/><use transform="matrix(0.06172839506172839,0,0,0.06172839506172839,45.55555555555556,0)" xlink:href="#cd"/><use transform="matrix(0.06172839506172839,0,0,0.06172839506172839,54.19753086419753,0)" xlink:href="#ce"/><use transform="matrix(0.06172839506172839,0,0,0.06172839506172839,66.54320987654322,0)" xlink:href="#bV"/></g><path fill="#333" d="M24-248c93 1 206-16 204 79-1 75-69 88-152 82V0H24v-248zm52 121c47 0 100 7 100-41 0-47-54-39-100-39v80" id="cj"/><g id="aa"><use transform="matrix(0.06172839506172839,0,0,0.06172839506172839,0,0)" xlink:href="#cj"/><use transform="matrix(0.06172839506172839,0,0,0.06172839506172839,14.814814814814813,0)" xlink:href="#bQ"/><use transform="matrix(0.06172839506172839,0,0,0.06172839506172839,28.33333333333333,0)" xlink:href="#cg"/><use transform="matrix(0.06172839506172839,0,0,0.06172839506172839,34.50617283950617,0)" xlink:href="#cg"/></g><path fill="#333" d="M275 0h-61l-44-196L126 0H64L0-248h53L97-49l45-199h58l43 199 44-199h52" id="ck"/><path fill="#333" d="M231 0h-52l-39-155L100 0H48L-1-190h46L77-45c9-52 24-97 36-145h53l37 145 32-145h46" id="cl"/><g id="ab"><use transform="matrix(0.06172839506172839,0,0,0.06172839506172839,0,0)" xlink:href="#ck"/><use transform="matrix(0.06172839506172839,0,0,0.06172839506172839,20.493827160493826,0)" xlink:href="#bQ"/><use transform="matrix(0.06172839506172839,0,0,0.06172839506172839,34.01234567901234,0)" xlink:href="#cd"/><use transform="matrix(0.06172839506172839,0,0,0.06172839506172839,42.654320987654316,0)" xlink:href="#ch"/><use transform="matrix(0.06172839506172839,0,0,0.06172839506172839,54.99999999999999,0)" xlink:href="#ci"/><use transform="matrix(0.06172839506172839,0,0,0.06172839506172839,62.34567901234567,0)" xlink:href="#cg"/><use transform="matrix(0.06172839506172839,0,0,0.06172839506172839,68.5185185185185,0)" xlink:href="#bQ"/><use transform="matrix(0.06172839506172839,0,0,0.06172839506172839,82.03703703703702,0)" xlink:href="#cl"/></g><use transform="matrix(0.06172839506172839,0,0,0.06172839506172839,0,0)" xlink:href="#bW" id="ac"/><g id="ad"><use transform="matrix(0.06172839506172839,0,0,0.06172839506172839,0,0)" xlink:href="#bX"/><use transform="matrix(0.06172839506172839,0,0,0.06172839506172839,15.987654320987653,0)" xlink:href="#bY"/><use transform="matrix(0.06172839506172839,0,0,0.06172839506172839,28.333333333333332,0)" xlink:href="#bZ"/><use transform="matrix(0.06172839506172839,0,0,0.06172839506172839,35.67901234567901,0)" xlink:href="#ca"/><use transform="matrix(0.06172839506172839,0,0,0.06172839506172839,41.851851851851855,0)" xlink:href="#cb"/><use transform="matrix(0.06172839506172839,0,0,0.06172839506172839,54.19753086419753,0)" xlink:href="#ca"/><use transform="matrix(0.06172839506172839,0,0,0.06172839506172839,60.370370370370374,0)" xlink:href="#bZ"/><use transform="matrix(0.06172839506172839,0,0,0.06172839506172839,67.71604938271605,0)" xlink:href="#cc"/></g><path fill="#333" d="M136-208V0H84v-208H4v-40h212v40h-80" id="cm"/><g id="ae"><use transform="matrix(0.06172839506172839,0,0,0.06172839506172839,0,0)" xlink:href="#cm"/><use transform="matrix(0.06172839506172839,0,0,0.06172839506172839,11.851851851851851,0)" xlink:href="#bS"/><use transform="matrix(0.06172839506172839,0,0,0.06172839506172839,24.19753086419753,0)" xlink:href="#bV"/><use transform="matrix(0.06172839506172839,0,0,0.06172839506172839,36.54320987654321,0)" xlink:href="#ch"/><use transform="matrix(0.06172839506172839,0,0,0.06172839506172839,48.888888888888886,0)" xlink:href="#bV"/></g><path fill="#333" d="M169-182c-1-43-94-46-97-3 18 66 151 10 154 114 3 95-165 93-204 36-6-8-10-19-12-30l50-8c3 46 112 56 116 5-17-69-150-10-154-114-4-87 153-88 188-35 5 8 8 18 10 28" id="cn"/><g id="af"><use transform="matrix(0.06172839506172839,0,0,0.06172839506172839,0,0)" xlink:href="#cn"/><use transform="matrix(0.06172839506172839,0,0,0.06172839506172839,14.814814814814813,0)" xlink:href="#bZ"/><use transform="matrix(0.06172839506172839,0,0,0.06172839506172839,22.160493827160494,0)" xlink:href="#bS"/><use transform="matrix(0.06172839506172839,0,0,0.06172839506172839,34.50617283950617,0)" xlink:href="#cd"/><use transform="matrix(0.06172839506172839,0,0,0.06172839506172839,43.148148148148145,0)" xlink:href="#bZ"/></g><g id="ag"><use transform="matrix(0.06172839506172839,0,0,0.06172839506172839,0,0)" xlink:href="#bP"/><use transform="matrix(0.06172839506172839,0,0,0.06172839506172839,15.987654320987653,0)" xlink:href="#bS"/><use transform="matrix(0.06172839506172839,0,0,0.06172839506172839,28.333333333333332,0)" xlink:href="#bT"/><use transform="matrix(0.06172839506172839,0,0,0.06172839506172839,41.85185185185185,0)" xlink:href="#bY"/><use transform="matrix(0.06172839506172839,0,0,0.06172839506172839,54.197530864197525,0)" xlink:href="#ce"/><use transform="matrix(0.06172839506172839,0,0,0.06172839506172839,66.5432098765432,0)" xlink:href="#cg"/></g><use transform="matrix(0.06172839506172839,0,0,0.06172839506172839,0,0)" xlink:href="#bW" id="ah"/><path fill="#333" d="M140-251c80 0 125 45 125 126 0 70-33 111-92 124 6 28 34 38 68 31l-1 36C177 83 129 55 120 2 51-6 15-50 15-125c0-81 44-126 125-126zm-1 214c52 0 73-35 73-88 0-50-21-86-72-86-52 0-73 35-73 86s22 88 72 88" id="co"/><g id="ai"><use transform="matrix(0.06172839506172839,0,0,0.06172839506172839,0,0)" xlink:href="#co"/><use transform="matrix(0.06172839506172839,0,0,0.06172839506172839,17.28395061728395,0)" xlink:href="#cf"/><use transform="matrix(0.06172839506172839,0,0,0.06172839506172839,30.80246913580247,0)" xlink:href="#ce"/><use transform="matrix(0.06172839506172839,0,0,0.06172839506172839,43.148148148148145,0)" xlink:href="#cd"/><use transform="matrix(0.06172839506172839,0,0,0.06172839506172839,51.79012345679012,0)" xlink:href="#cc"/></g><use transform="matrix(0.06172839506172839,0,0,0.06172839506172839,0,0)" xlink:href="#bW" id="aj"/><path fill="#333" d="M238-95c0 69-44 99-111 99C63 4 22-25 22-93v-155h51v151c-1 38 19 59 55 60 90 1 49-130 58-211h52v153" id="cp"/><path fill="#333" d="M135-194c53 0 70 44 70 98 0 56-19 98-73 100-31 1-45-17-59-34 3 33 2 69 2 105H25l-1-265h48c2 10 0 23 3 31 11-24 29-35 60-35zM114-30c33 0 39-31 40-66 0-38-9-64-40-64-56 0-55 130 0 130" id="cq"/><g id="ak"><use transform="matrix(0.06172839506172839,0,0,0.06172839506172839,0,0)" xlink:href="#cp"/><use transform="matrix(0.06172839506172839,0,0,0.06172839506172839,15.987654320987653,0)" xlink:href="#cq"/><use transform="matrix(0.06172839506172839,0,0,0.06172839506172839,29.50617283950617,0)" xlink:href="#bU"/><use transform="matrix(0.06172839506172839,0,0,0.06172839506172839,43.02469135802469,0)" xlink:href="#bS"/><use transform="matrix(0.06172839506172839,0,0,0.06172839506172839,55.37037037037037,0)" xlink:href="#bZ"/><use transform="matrix(0.06172839506172839,0,0,0.06172839506172839,62.716049382716044,0)" xlink:href="#ce"/></g><path fill="#333" d="M195-6C206 82 75 100 31 46c-4-6-6-13-8-21l49-6c3 16 16 24 34 25 40 0 42-37 40-79-11 22-30 35-61 35-53 0-70-43-70-97 0-56 18-96 73-97 30 0 46 14 59 34l2-30h47zm-90-29c32 0 41-27 41-63 0-35-9-62-40-62-32 0-39 29-40 63 0 36 9 62 39 62" id="cr"/><g id="al"><use transform="matrix(0.06172839506172839,0,0,0.06172839506172839,0,0)" xlink:href="#cn"/><use transform="matrix(0.06172839506172839,0,0,0.06172839506172839,14.814814814814813,0)" xlink:href="#ca"/><use transform="matrix(0.06172839506172839,0,0,0.06172839506172839,20.98765432098765,0)" xlink:href="#cr"/><use transform="matrix(0.06172839506172839,0,0,0.06172839506172839,34.50617283950617,0)" xlink:href="#bT"/><use transform="matrix(0.06172839506172839,0,0,0.06172839506172839,48.02469135802469,0)" xlink:href="#bS"/><use transform="matrix(0.06172839506172839,0,0,0.06172839506172839,60.37037037037037,0)" xlink:href="#cg"/></g><path fill="#333" d="M240-174c0 40-23 61-54 70L253 0h-59l-57-94H76V0H24v-248c93 4 217-23 216 74zM76-134c48-2 112 12 112-38 0-48-66-32-112-35v73" id="cs"/><g id="am"><use transform="matrix(0.06172839506172839,0,0,0.06172839506172839,0,0)" xlink:href="#cs"/><use transform="matrix(0.06172839506172839,0,0,0.06172839506172839,15.987654320987653,0)" xlink:href="#ce"/><use transform="matrix(0.06172839506172839,0,0,0.06172839506172839,28.333333333333332,0)" xlink:href="#bV"/><use transform="matrix(0.06172839506172839,0,0,0.06172839506172839,40.67901234567901,0)" xlink:href="#ce"/><use transform="matrix(0.06172839506172839,0,0,0.06172839506172839,53.02469135802469,0)" xlink:href="#bZ"/></g><g id="an"><use transform="matrix(0.06172839506172839,0,0,0.06172839506172839,0,0)" xlink:href="#ce"/><use transform="matrix(0.06172839506172839,0,0,0.06172839506172839,12.345679012345679,0)" xlink:href="#bZ"/><use transform="matrix(0.06172839506172839,0,0,0.06172839506172839,19.691358024691358,0)" xlink:href="#bY"/></g></defs></g></svg>